<svg width="18" height="16" viewBox="0 0 18 16" fill="none" xmlns="http://www.w3.org/2000/svg">
<path d="M3.94508 12.4416C1.35196 9.8485 1.35196 5.59312 3.94508 3" stroke="black" stroke-width="1.55599" stroke-linecap="round" stroke-linejoin="round"/>
<path d="M5.87291 10.513C4.34363 8.98373 4.34363 6.4571 5.87291 4.86133" stroke="black" stroke-width="1.55599" stroke-linecap="round" stroke-linejoin="round"/>
<path d="M8.66525 9.05024C9.39969 9.05024 9.99506 8.45486 9.99506 7.72043C9.99506 6.986 9.39969 6.39062 8.66525 6.39062C7.93082 6.39062 7.33545 6.986 7.33545 7.72043C7.33545 8.45486 7.93082 9.05024 8.66525 9.05024Z" stroke="black" stroke-width="1.55599" stroke-linecap="round" stroke-linejoin="round"/>
<path d="M11.4575 4.92773C12.9867 6.45701 12.9867 8.98364 11.4575 10.5794" stroke="black" stroke-width="1.55599" stroke-linecap="round" stroke-linejoin="round"/>
<path d="M13.3854 3C15.9785 5.59312 15.9785 9.78201 13.3854 12.3751" stroke="black" stroke-width="1.55599" stroke-linecap="round" stroke-linejoin="round"/>
</svg>
