<svg width="18" height="16" viewBox="0 0 18 16" fill="none" xmlns="http://www.w3.org/2000/svg">
<path d="M7.94539 9.32001V10.6533C7.22539 10.6533 6.55428 10.8356 5.93206 11.2C5.32762 11.5556 4.84762 12.0311 4.49206 12.6267C4.12762 13.2489 3.94539 13.9245 3.94539 14.6533H2.61206C2.61206 13.6845 2.8565 12.7867 3.34539 11.96C3.8165 11.1511 4.45206 10.5111 5.25206 10.04C6.07873 9.56001 6.97651 9.32001 7.94539 9.32001ZM7.94539 8.65335C7.22539 8.65335 6.55428 8.47112 5.93206 8.10668C5.32762 7.75112 4.84762 7.27112 4.49206 6.66668C4.12762 6.04446 3.94539 5.37112 3.94539 4.64668C3.94539 3.92223 4.12762 3.2489 4.49206 2.62668C4.84762 2.03112 5.32762 1.55557 5.93206 1.20001C6.55428 0.835568 7.22762 0.653346 7.95206 0.653346C8.67651 0.653346 9.34984 0.835568 9.97206 1.20001C10.5676 1.55557 11.0432 2.03112 11.3987 2.62668C11.7632 3.2489 11.9454 3.92223 11.9454 4.64668C11.9454 5.37112 11.7632 6.04446 11.3987 6.66668C11.0432 7.27112 10.5676 7.75112 9.97206 8.10668C9.34984 8.47112 8.67428 8.65335 7.94539 8.65335ZM7.94539 7.32001C8.42539 7.32001 8.86984 7.20001 9.27873 6.96001C9.68762 6.72001 10.0121 6.39557 10.2521 5.98668C10.4921 5.57779 10.6121 5.13335 10.6121 4.65335C10.6121 4.17335 10.4921 3.7289 10.2521 3.32001C10.0121 2.91112 9.68762 2.58668 9.27873 2.34668C8.86984 2.10668 8.42539 1.98668 7.94539 1.98668C7.46539 1.98668 7.02095 2.10668 6.61206 2.34668C6.20317 2.58668 5.87873 2.91112 5.63873 3.32001C5.39873 3.7289 5.27873 4.17335 5.27873 4.65335C5.27873 5.13335 5.39873 5.57779 5.63873 5.98668C5.87873 6.39557 6.20317 6.72001 6.61206 6.96001C7.02095 7.20001 7.46539 7.32001 7.94539 7.32001ZM11.9454 14.32L9.98539 15.3467L10.3587 13.16L8.77206 11.6267L10.9721 11.3067L11.9454 9.32001L12.9321 11.3067L15.1187 11.6267L13.5321 13.16L13.9054 15.3467L11.9454 14.32Z" fill="black"/>
</svg>
