<svg width="18" height="16" viewBox="0 0 18 16" fill="none" xmlns="http://www.w3.org/2000/svg">
<path d="M14.8652 2C15.0518 2 15.2096 2.06444 15.3385 2.19333C15.4674 2.32222 15.5318 2.48 15.5318 2.66667V13.3333C15.5318 13.52 15.4674 13.6778 15.3385 13.8067C15.2096 13.9356 15.0518 14 14.8652 14H2.86515C2.67849 14 2.52071 13.9356 2.39182 13.8067C2.26293 13.6778 2.19849 13.52 2.19849 13.3333V2.66667C2.19849 2.48 2.26293 2.32222 2.39182 2.19333C2.52071 2.06444 2.67849 2 2.86515 2H14.8652ZM8.19849 8.66667H3.53182V12.6667H8.19849V8.66667ZM14.1985 8.66667H9.53182V12.6667H14.1985V8.66667ZM8.19849 3.33333H3.53182V7.33333H8.19849V3.33333ZM14.1985 3.33333H9.53182V7.33333H14.1985V3.33333Z" fill="black"/>
</svg>
