<svg width="18" height="16" viewBox="0 0 18 16" fill="none" xmlns="http://www.w3.org/2000/svg">
<path d="M12.7854 10.9734L15.6387 13.8268L14.692 14.7734L11.8387 11.9201C11.3143 12.3379 10.7409 12.6579 10.1187 12.8801C9.46093 13.1112 8.78537 13.2268 8.09204 13.2268C7.0076 13.2268 5.99871 12.9557 5.06537 12.4134C4.15871 11.8801 3.44315 11.1601 2.91871 10.2534C2.3676 9.3201 2.09204 8.31121 2.09204 7.22677C2.09204 6.14233 2.3676 5.13344 2.91871 4.2001C3.44315 3.29344 4.15871 2.57788 5.06537 2.05344C5.99871 1.50233 7.0076 1.22677 8.09204 1.22677C9.17649 1.22677 10.1854 1.50233 11.1187 2.05344C12.0254 2.57788 12.7454 3.29344 13.2787 4.2001C13.8209 5.13344 14.092 6.14233 14.092 7.22677C14.092 7.9201 13.9765 8.59566 13.7454 9.25344C13.5232 9.87566 13.2032 10.449 12.7854 10.9734ZM11.4387 10.4801C11.8565 10.0534 12.1809 9.56455 12.412 9.01344C12.6432 8.44455 12.7587 7.84899 12.7587 7.22677C12.7587 6.38233 12.5454 5.59566 12.1187 4.86677C11.7098 4.16455 11.1543 3.60899 10.452 3.2001C9.72315 2.77344 8.93649 2.5601 8.09204 2.5601C7.2476 2.5601 6.46093 2.77344 5.73204 3.2001C5.02982 3.60899 4.47426 4.16455 4.06537 4.86677C3.63871 5.59566 3.42537 6.38233 3.42537 7.22677C3.42537 8.07122 3.63871 8.85788 4.06537 9.58677C4.47426 10.289 5.02982 10.8445 5.73204 11.2534C6.46093 11.6801 7.2476 11.8934 8.09204 11.8934C8.71426 11.8934 9.30982 11.7779 9.87871 11.5468C10.4298 11.3157 10.9187 10.9912 11.3454 10.5734L11.4387 10.4801Z" fill="black"/>
</svg>
