<svg width="18" height="16" viewBox="0 0 18 16" fill="none" xmlns="http://www.w3.org/2000/svg">
<path d="M8.86528 6.00033C8.50083 6.00033 8.16528 6.08921 7.85861 6.26699C7.55194 6.44477 7.30972 6.68699 7.13194 6.99366C6.95416 7.30033 6.86528 7.63588 6.86528 8.00033C6.86528 8.36477 6.95416 8.70033 7.13194 9.00699C7.30972 9.31366 7.55194 9.55588 7.85861 9.73366C8.16528 9.91144 8.50083 10.0003 8.86528 10.0003C9.22972 10.0003 9.56528 9.91144 9.87194 9.73366C10.1786 9.55588 10.4208 9.31366 10.5986 9.00699C10.7764 8.70033 10.8653 8.36477 10.8653 8.00033C10.8653 7.63588 10.7764 7.30033 10.5986 6.99366C10.4208 6.68699 10.1786 6.44477 9.87194 6.26699C9.56528 6.08921 9.22972 6.00033 8.86528 6.00033ZM8.86528 4.66699C9.46972 4.66699 10.0275 4.81588 10.5386 5.11366C11.0497 5.41144 11.4542 5.81588 11.7519 6.32699C12.0497 6.8381 12.1986 7.39588 12.1986 8.00033C12.1986 8.60477 12.0497 9.16255 11.7519 9.67366C11.4542 10.1848 11.0497 10.5892 10.5386 10.887C10.0275 11.1848 9.46972 11.3337 8.86528 11.3337C8.26083 11.3337 7.70305 11.1848 7.19194 10.887C6.68083 10.5892 6.27639 10.1848 5.97861 9.67366C5.68083 9.16255 5.53194 8.60477 5.53194 8.00033C5.53194 7.39588 5.68083 6.8381 5.97861 6.32699C6.27639 5.81588 6.68083 5.41144 7.19194 5.11366C7.70305 4.81588 8.26083 4.66699 8.86528 4.66699ZM13.1986 4.49366C13.1986 4.72477 13.1164 4.92255 12.9519 5.08699C12.7875 5.25144 12.5919 5.33366 12.3653 5.33366C12.1386 5.33366 11.9431 5.25144 11.7786 5.08699C11.6142 4.92255 11.5319 4.72699 11.5319 4.50033C11.5319 4.27366 11.6142 4.0781 11.7786 3.91366C11.9431 3.74921 12.1386 3.66699 12.3653 3.66699C12.5919 3.66699 12.7875 3.74921 12.9519 3.91366C13.1164 4.0781 13.1986 4.27144 13.1986 4.49366ZM8.86528 2.66699C8.0475 2.66699 7.49194 2.66921 7.19861 2.67366C6.90528 2.6781 6.5675 2.68921 6.18528 2.70699C5.70528 2.72477 5.30528 2.79588 4.98528 2.92033C4.70972 3.02699 4.4675 3.18477 4.25861 3.39366C4.04972 3.60255 3.89194 3.84477 3.78528 4.12033C3.66083 4.44033 3.58972 4.84033 3.57194 5.32032C3.55416 5.68477 3.54305 6.01144 3.53861 6.30033C3.53416 6.58921 3.53194 7.15588 3.53194 8.00033C3.53194 8.8181 3.53416 9.37366 3.53861 9.66699C3.54305 9.96033 3.55416 10.2981 3.57194 10.6803C3.58972 11.1603 3.66083 11.5603 3.78528 11.8803C3.89194 12.1559 4.04972 12.3981 4.25861 12.607C4.4675 12.8159 4.70972 12.9692 4.98528 13.067C5.30528 13.2003 5.70528 13.2759 6.18528 13.2937C6.54972 13.3114 6.87639 13.3225 7.16528 13.327C7.45416 13.3314 8.02083 13.3337 8.86528 13.3337C9.68305 13.3337 10.2386 13.3314 10.5319 13.327C10.8253 13.3225 11.1631 13.3114 11.5453 13.2937C12.0253 13.2759 12.4253 13.2048 12.7453 13.0803C13.0208 12.9737 13.2631 12.8159 13.4719 12.607C13.6808 12.3981 13.8342 12.1559 13.9319 11.8803C14.0653 11.5603 14.1408 11.1603 14.1586 10.6803C14.1764 10.3159 14.1875 9.98921 14.1919 9.70033C14.1964 9.41144 14.1986 8.84477 14.1986 8.00033C14.1986 7.18255 14.1964 6.62699 14.1919 6.33366C14.1875 6.04033 14.1764 5.70255 14.1586 5.32032C14.1408 4.84033 14.0697 4.44033 13.9453 4.12033C13.8386 3.84477 13.6808 3.60255 13.4719 3.39366C13.2631 3.18477 13.0208 3.02699 12.7453 2.92033C12.4253 2.79588 12.0253 2.72477 11.5453 2.70699C11.1808 2.68921 10.8542 2.6781 10.5653 2.67366C10.2764 2.66921 9.70972 2.66699 8.86528 2.66699ZM8.86528 1.33366C9.73639 1.33366 10.3319 1.3381 10.6519 1.34699C10.9186 1.34699 11.2386 1.35588 11.6119 1.37366C12.2342 1.40032 12.7719 1.50255 13.2253 1.68033C13.6786 1.8581 14.0742 2.11588 14.4119 2.45366C14.7497 2.79144 15.0075 3.18699 15.1853 3.64033C15.3631 4.09366 15.4653 4.63144 15.4919 5.25366C15.5097 5.63588 15.5186 5.95588 15.5186 6.21366C15.5275 6.55144 15.5319 7.15144 15.5319 8.01366C15.5319 8.87588 15.5275 9.46699 15.5186 9.78699C15.5186 10.0537 15.5097 10.3737 15.4919 10.747C15.4653 11.3692 15.3631 11.907 15.1853 12.3603C15.0075 12.8137 14.7497 13.2092 14.4119 13.547C14.0742 13.8848 13.6786 14.1425 13.2253 14.3203C12.7719 14.4981 12.2342 14.6003 11.6119 14.627C11.2297 14.6448 10.9097 14.6537 10.6519 14.6537C10.3142 14.6625 9.71416 14.667 8.85194 14.667C7.98972 14.667 7.39861 14.6625 7.07861 14.6537C6.81194 14.6537 6.49194 14.6448 6.11861 14.627C5.49639 14.6003 4.95861 14.4981 4.50528 14.3203C4.05194 14.1425 3.65639 13.8848 3.31861 13.547C2.98083 13.2092 2.72305 12.8137 2.54528 12.3603C2.3675 11.907 2.26528 11.3692 2.23861 10.747C2.22083 10.3648 2.21194 10.0448 2.21194 9.78699C2.20305 9.44921 2.19861 8.84921 2.19861 7.98699C2.19861 7.12477 2.20305 6.53366 2.21194 6.21366C2.21194 5.94699 2.22083 5.62699 2.23861 5.25366C2.26528 4.63144 2.3675 4.09366 2.54528 3.64033C2.72305 3.18699 2.98083 2.79144 3.31861 2.45366C3.65639 2.11588 4.05194 1.8581 4.50528 1.68033C4.95861 1.50255 5.49639 1.40032 6.11861 1.37366C6.50083 1.35588 6.82083 1.34699 7.07861 1.34699C7.41639 1.3381 8.01194 1.33366 8.86528 1.33366Z" fill="black"/>
</svg>
