<svg width="18" height="24" viewBox="0 0 18 24" fill="none" xmlns="http://www.w3.org/2000/svg">
<path d="M12.5391 17.0014H5.87111V17.6682C5.87111 17.8549 5.80665 18.0127 5.67774 18.1416C5.54882 18.2705 5.39101 18.335 5.20431 18.335H4.53751C4.35081 18.335 4.193 18.2705 4.06408 18.1416C3.93517 18.0127 3.87071 17.8549 3.87071 17.6682V17.0014H3.20391V11.667H2.53711V8.99976H3.20391V6.99936C3.20391 6.75931 3.26392 6.53705 3.38395 6.33256C3.50397 6.12808 3.66622 5.96582 3.87071 5.8458C4.07519 5.72577 4.29746 5.66576 4.53751 5.66576H13.8727C14.1128 5.66576 14.335 5.72577 14.5395 5.8458C14.744 5.96582 14.9062 6.12808 15.0263 6.33256C15.1463 6.53705 15.2063 6.75931 15.2063 6.99936V8.99976H15.8731V11.667H15.2063V17.0014H14.5395V17.6682C14.5395 17.8549 14.4751 18.0127 14.3461 18.1416C14.2172 18.2705 14.0594 18.335 13.8727 18.335H13.2059C13.0192 18.335 12.8614 18.2705 12.7325 18.1416C12.6036 18.0127 12.5391 17.8549 12.5391 17.6682V17.0014ZM13.8727 11.667V6.99936H4.53751V11.667H13.8727ZM13.8727 13.0006H4.53751V15.6678H13.8727V13.0006ZM5.20431 13.6674H7.87151V15.001H5.20431V13.6674ZM10.5387 13.6674H13.2059V15.001H10.5387V13.6674Z" fill="black"/>
</svg>
