<svg width="17" height="24" viewBox="0 0 17 24" fill="none" xmlns="http://www.w3.org/2000/svg">
<path d="M11.8023 17.0011L13.0025 18.0013V18.3347H3.66734V18.0013L4.86758 17.0011H3.66734C3.42729 17.0011 3.20503 16.9411 3.00054 16.8211C2.79605 16.7011 2.6338 16.5388 2.51378 16.3343C2.39375 16.1298 2.33374 15.9076 2.33374 15.6675V8.33272C2.33374 7.85262 2.45376 7.40809 2.69381 6.99912C2.93386 6.59015 3.25837 6.26564 3.66734 6.02559C4.07631 5.78554 4.52084 5.66552 5.00094 5.66552H11.6689C12.149 5.66552 12.5936 5.78554 13.0025 6.02559C13.4115 6.26564 13.736 6.59015 13.9761 6.99912C14.2161 7.40809 14.3361 7.85262 14.3361 8.33272V15.6675C14.3361 15.9076 14.2761 16.1298 14.1561 16.3343C14.0361 16.5388 13.8738 16.7011 13.6693 16.8211C13.4649 16.9411 13.2426 17.0011 13.0025 17.0011H11.8023ZM5.00094 6.99912C4.76089 6.99912 4.53863 7.05913 4.33414 7.17915C4.12965 7.29918 3.9674 7.46143 3.84738 7.66592C3.72735 7.8704 3.66734 8.09267 3.66734 8.33272V15.6675H13.0025V8.33272C13.0025 8.09267 12.9425 7.8704 12.8225 7.66592C12.7025 7.46143 12.5402 7.29918 12.3357 7.17915C12.1313 7.05913 11.909 6.99912 11.6689 6.99912H5.00094ZM8.33494 15.0007C8.09489 15.0007 7.87263 14.9407 7.66814 14.8207C7.46365 14.7007 7.3014 14.5384 7.18138 14.3339C7.06135 14.1294 7.00134 13.9072 7.00134 13.6671C7.00134 13.4271 7.06135 13.2048 7.18138 13.0003C7.3014 12.7958 7.46365 12.6336 7.66814 12.5136C7.87263 12.3935 8.09489 12.3335 8.33494 12.3335C8.57499 12.3335 8.79726 12.3935 9.00174 12.5136C9.20623 12.6336 9.36848 12.7958 9.4885 13.0003C9.60853 13.2048 9.66854 13.4271 9.66854 13.6671C9.66854 13.9072 9.60853 14.1294 9.4885 14.3339C9.36848 14.5384 9.20623 14.7007 9.00174 14.8207C8.79726 14.9407 8.57499 15.0007 8.33494 15.0007ZM4.33414 8.33272H12.3357V10.9999H4.33414V8.33272Z" fill="black"/>
</svg>
