<svg width="17" height="24" viewBox="0 0 17 24" fill="none" xmlns="http://www.w3.org/2000/svg">
<path d="M15.3431 10.9999V17.6679C15.3431 17.8546 15.2786 18.0124 15.1497 18.1413C15.0208 18.2703 14.863 18.3347 14.6763 18.3347H14.0095C13.8228 18.3347 13.665 18.2703 13.5361 18.1413C13.4071 18.0124 13.3427 17.8546 13.3427 17.6679V17.0011H4.00748V17.6679C4.00748 17.8546 3.94302 18.0124 3.81411 18.1413C3.68519 18.2703 3.52738 18.3347 3.34068 18.3347H2.67388C2.48718 18.3347 2.32937 18.2703 2.20045 18.1413C2.07154 18.0124 2.00708 17.8546 2.00708 17.6679V10.9999L3.63407 7.7326C3.74965 7.51033 3.91413 7.33252 4.1275 7.19916C4.34088 7.0658 4.57648 6.99912 4.83431 6.99912H6.67468V5.66552H10.6755V6.99912H12.5158C12.7737 6.99912 13.0093 7.0658 13.2227 7.19916C13.436 7.33252 13.6005 7.51033 13.7161 7.7326L15.3431 10.9999ZM14.0095 12.3335H3.34068V15.6675H14.0095V12.3335ZM3.50071 10.9999H13.8494L12.5158 8.33272H4.83431L3.50071 10.9999ZM5.00768 15.0007C4.73207 15.0007 4.49647 14.9029 4.30087 14.7073C4.10528 14.5117 4.00748 14.2761 4.00748 14.0005C4.00748 13.7249 4.10528 13.4893 4.30087 13.2937C4.49647 13.0981 4.73207 13.0003 5.00768 13.0003C5.28329 13.0003 5.51889 13.0981 5.71449 13.2937C5.91008 13.4893 6.00788 13.7249 6.00788 14.0005C6.00788 14.2761 5.91008 14.5117 5.71449 14.7073C5.51889 14.9029 5.28329 15.0007 5.00768 15.0007ZM12.3425 15.0007C12.0669 15.0007 11.8313 14.9029 11.6357 14.7073C11.4401 14.5117 11.3423 14.2761 11.3423 14.0005C11.3423 13.7249 11.4401 13.4893 11.6357 13.2937C11.8313 13.0981 12.0669 13.0003 12.3425 13.0003C12.6181 13.0003 12.8537 13.0981 13.0493 13.2937C13.2449 13.4893 13.3427 13.7249 13.3427 14.0005C13.3427 14.2761 13.2449 14.5117 13.0493 14.7073C12.8537 14.9029 12.6181 15.0007 12.3425 15.0007Z" fill="black"/>
</svg>
