<svg width="17" height="24" viewBox="0 0 17 24" fill="none" xmlns="http://www.w3.org/2000/svg">
<path d="M12.6693 9.33277H14.0029C14.1896 9.33277 14.3474 9.39723 14.4763 9.52614C14.6052 9.65506 14.6697 9.81286 14.6697 9.99957V18.0012C14.6697 18.1879 14.6052 18.3457 14.4763 18.4746C14.3474 18.6035 14.1896 18.668 14.0029 18.668H8.66849C8.48178 18.668 8.32398 18.6035 8.19506 18.4746C8.06615 18.3457 8.00169 18.1879 8.00169 18.0012V17.3344H2.66729C2.48058 17.3344 2.32277 17.2699 2.19386 17.141C2.06495 17.0121 2.00049 16.8543 2.00049 16.6676V5.99877C2.00049 5.81207 2.06495 5.65425 2.19386 5.52534C2.32277 5.39643 2.48058 5.33197 2.66729 5.33197H12.0025C12.1892 5.33197 12.347 5.39643 12.4759 5.52534C12.6048 5.65425 12.6693 5.81207 12.6693 5.99877V9.33277ZM11.3357 9.33277V6.66557H3.33409V16.0008H8.00169V9.99957C8.00169 9.81286 8.06615 9.65506 8.19506 9.52614C8.32398 9.39723 8.48178 9.33277 8.66849 9.33277H11.3357ZM9.33529 10.6664V17.3344H13.3361V10.6664H9.33529Z" fill="black"/>
</svg>
