<svg width="17" height="24" viewBox="0 0 17 24" fill="none" xmlns="http://www.w3.org/2000/svg">
<path d="M14.3362 18.0012H2.33379C2.14709 18.0012 1.98928 17.9368 1.86036 17.8078C1.73145 17.6789 1.66699 17.5211 1.66699 17.3344V12.3201C1.66699 12.1245 1.74256 11.96 1.8937 11.8267L4.33419 9.69289V6.66562C4.33419 6.47892 4.39865 6.32111 4.52756 6.19219C4.65648 6.06328 4.81429 5.99882 5.00099 5.99882H14.3362C14.5229 5.99882 14.6807 6.06328 14.8096 6.19219C14.9385 6.32111 15.003 6.47892 15.003 6.66562V17.3344C15.003 17.5211 14.9385 17.6789 14.8096 17.8078C14.6807 17.9368 14.5229 18.0012 14.3362 18.0012ZM6.33459 16.6676H8.33499V12.6268L5.66779 10.3063L3.00059 12.6268V16.6676H5.00099V14.0004H6.33459V16.6676ZM9.66859 16.6676H13.6694V7.33242H5.66779V8.74604C5.83671 8.74604 5.98341 8.80383 6.10788 8.9194L9.44188 11.8267C9.59302 11.96 9.66859 12.1245 9.66859 12.3201V16.6676ZM11.0022 11.3332H12.3358V12.6668H11.0022V11.3332ZM11.0022 14.0004H12.3358V15.334H11.0022V14.0004ZM11.0022 8.66602H12.3358V9.99962H11.0022V8.66602ZM8.33499 8.66602H9.66859V9.99962H8.33499V8.66602Z" fill="black"/>
</svg>
