<svg width="17" height="24" viewBox="0 0 17 24" fill="none" xmlns="http://www.w3.org/2000/svg">
<path d="M8.73507 14.6672L6.60131 9.33282H5.26771L3.13395 14.6672H4.57424L4.84096 14.0004H7.02806L7.29478 14.6672H8.73507ZM5.3744 12.6668L5.93451 11.2532L6.49462 12.6668H5.3744ZM11.669 9.33282H13.0026V14.6672H11.0022C10.6377 14.6672 10.3021 14.5783 9.99532 14.4005C9.6886 14.2227 9.44633 13.9804 9.26851 13.6737C9.0907 13.367 9.00179 13.0313 9.00179 12.6668C9.00179 12.3023 9.0907 11.9667 9.26851 11.66C9.44633 11.3532 9.6886 11.111 9.99532 10.9331C10.3021 10.7553 10.6377 10.6664 11.0022 10.6664H11.669V9.33282ZM11.0022 12C10.8155 12 10.6577 12.0645 10.5288 12.1934C10.3998 12.3223 10.3354 12.4801 10.3354 12.6668C10.3354 12.8535 10.3998 13.0113 10.5288 13.1402C10.6577 13.2692 10.8155 13.3336 11.0022 13.3336H11.669V12H11.0022ZM14.3362 5.99882H2.33379C2.14709 5.99882 1.98928 6.06328 1.86036 6.19219C1.73145 6.32111 1.66699 6.47892 1.66699 6.66562V17.3344C1.66699 17.5211 1.73145 17.6789 1.86036 17.8078C1.98928 17.9368 2.14709 18.0012 2.33379 18.0012H14.3362C14.5229 18.0012 14.6807 17.9368 14.8096 17.8078C14.9385 17.6789 15.003 17.5211 15.003 17.3344V6.66562C15.003 6.47892 14.9385 6.32111 14.8096 6.19219C14.6807 6.06328 14.5229 5.99882 14.3362 5.99882ZM3.00059 16.6676V7.33242H13.6694V16.6676H3.00059Z" fill="black"/>
</svg>
