<svg width="17" height="16" viewBox="0 0 17 16" fill="none" xmlns="http://www.w3.org/2000/svg">
<path d="M3.41457 12.4416C0.821446 9.8485 0.821446 5.59312 3.41457 3" stroke="black" stroke-width="1.55599" stroke-linecap="round" stroke-linejoin="round"/>
<path d="M5.34227 10.513C3.81299 8.98373 3.81299 6.4571 5.34227 4.86133" stroke="black" stroke-width="1.55599" stroke-linecap="round" stroke-linejoin="round"/>
<path d="M8.13449 9.05024C8.86892 9.05024 9.4643 8.45486 9.4643 7.72043C9.4643 6.986 8.86892 6.39062 8.13449 6.39062C7.40006 6.39062 6.80469 6.986 6.80469 7.72043C6.80469 8.45486 7.40006 9.05024 8.13449 9.05024Z" stroke="black" stroke-width="1.55599" stroke-linecap="round" stroke-linejoin="round"/>
<path d="M10.9268 4.92773C12.456 6.45701 12.456 8.98364 10.9268 10.5794" stroke="black" stroke-width="1.55599" stroke-linecap="round" stroke-linejoin="round"/>
<path d="M12.855 3C15.4481 5.59312 15.4481 9.78201 12.855 12.3751" stroke="black" stroke-width="1.55599" stroke-linecap="round" stroke-linejoin="round"/>
</svg>
