<svg width="26" height="32" viewBox="0 0 26 32" fill="none" xmlns="http://www.w3.org/2000/svg">
<path d="M19.3177 20.3898L23.5303 24.6024L22.1326 26L17.92 21.7874C17.1458 22.4042 16.2993 22.8766 15.3807 23.2047C14.4095 23.5459 13.4122 23.7165 12.3885 23.7165C10.7875 23.7165 9.29799 23.3163 7.92004 22.5157C6.58145 21.7283 5.52502 20.6654 4.75075 19.3268C3.9371 17.9488 3.53027 16.4593 3.53027 14.8583C3.53027 13.2572 3.9371 11.7677 4.75075 10.3898C5.52502 9.05118 6.58145 7.99475 7.92004 7.22047C9.29799 6.40682 10.7875 6 12.3885 6C13.9896 6 15.4791 6.40682 16.857 7.22047C18.1956 7.99475 19.2586 9.05118 20.046 10.3898C20.8465 11.7677 21.2468 13.2572 21.2468 14.8583C21.2468 15.8819 21.0762 16.8793 20.735 17.8504C20.4069 18.769 19.9345 19.6155 19.3177 20.3898ZM17.3295 19.6614C17.9463 19.0315 18.4253 18.3097 18.7665 17.4961C19.1077 16.6562 19.2783 15.7769 19.2783 14.8583C19.2783 13.6115 18.9633 12.4501 18.3334 11.374C17.7297 10.3373 16.9095 9.51706 15.8728 8.91339C14.7967 8.28346 13.6353 7.9685 12.3885 7.9685C11.1418 7.9685 9.9804 8.28346 8.90429 8.91339C7.86754 9.51706 7.04733 10.3373 6.44366 11.374C5.81374 12.4501 5.49878 13.6115 5.49878 14.8583C5.49878 16.105 5.81374 17.2664 6.44366 18.3425C7.04733 19.3793 7.86754 20.1995 8.90429 20.8031C9.9804 21.4331 11.1418 21.748 12.3885 21.748C13.3072 21.748 14.1864 21.5774 15.0263 21.2362C15.84 20.895 16.5618 20.416 17.1917 19.7992L17.3295 19.6614Z" fill="#402B8F"/>
</svg>
