<svg width="26" height="32" viewBox="0 0 26 32" fill="none" xmlns="http://www.w3.org/2000/svg">
<path d="M18.03 23.5H8.03003V24.5C8.03003 24.78 7.93336 25.0167 7.74003 25.21C7.5467 25.4033 7.31003 25.5 7.03003 25.5H6.03003C5.75003 25.5 5.51336 25.4033 5.32003 25.21C5.1267 25.0167 5.03003 24.78 5.03003 24.5V23.5H4.03003V15.5H3.03003V11.5H4.03003V8.5C4.03003 8.14 4.12003 7.80667 4.30003 7.5C4.48003 7.19333 4.72336 6.95 5.03003 6.77C5.3367 6.59 5.67003 6.5 6.03003 6.5H20.03C20.39 6.5 20.7234 6.59 21.03 6.77C21.3367 6.95 21.58 7.19333 21.76 7.5C21.94 7.80667 22.03 8.14 22.03 8.5V11.5H23.03V15.5H22.03V23.5H21.03V24.5C21.03 24.78 20.9334 25.0167 20.74 25.21C20.5467 25.4033 20.31 25.5 20.03 25.5H19.03C18.75 25.5 18.5134 25.4033 18.32 25.21C18.1267 25.0167 18.03 24.78 18.03 24.5V23.5ZM20.03 15.5V8.5H6.03003V15.5H20.03ZM20.03 17.5H6.03003V21.5H20.03V17.5ZM7.03003 18.5H11.03V20.5H7.03003V18.5ZM15.03 18.5H19.03V20.5H15.03V18.5Z" fill="#402B8F"/>
</svg>
