<svg width="26" height="32" viewBox="0 0 26 32" fill="none" xmlns="http://www.w3.org/2000/svg">
<path d="M14.1303 20L10.9303 12H8.93027L5.73027 20H7.89027L8.29027 19H11.5703L11.9703 20H14.1303ZM9.09027 17L9.93027 14.88L10.7703 17H9.09027ZM18.5303 12H20.5303V20H17.5303C16.9836 20 16.4803 19.8667 16.0203 19.6C15.5603 19.3333 15.1969 18.97 14.9303 18.51C14.6636 18.05 14.5303 17.5467 14.5303 17C14.5303 16.4533 14.6636 15.95 14.9303 15.49C15.1969 15.03 15.5603 14.6667 16.0203 14.4C16.4803 14.1333 16.9836 14 17.5303 14H18.5303V12ZM17.5303 16C17.2503 16 17.0136 16.0967 16.8203 16.29C16.6269 16.4833 16.5303 16.72 16.5303 17C16.5303 17.28 16.6269 17.5167 16.8203 17.71C17.0136 17.9033 17.2503 18 17.5303 18H18.5303V16H17.5303ZM22.5303 7H4.53027C4.25027 7 4.01361 7.09667 3.82027 7.29C3.62694 7.48333 3.53027 7.72 3.53027 8V24C3.53027 24.28 3.62694 24.5167 3.82027 24.71C4.01361 24.9033 4.25027 25 4.53027 25H22.5303C22.8103 25 23.0469 24.9033 23.2403 24.71C23.4336 24.5167 23.5303 24.28 23.5303 24V8C23.5303 7.72 23.4336 7.48333 23.2403 7.29C23.0469 7.09667 22.8103 7 22.5303 7ZM5.53027 23V9H21.5303V23H5.53027Z" fill="#402B8F"/>
</svg>
