<svg width="25" height="32" viewBox="0 0 25 32" fill="none" xmlns="http://www.w3.org/2000/svg">
<path d="M23 15V25C23 25.28 22.9033 25.5167 22.71 25.71C22.5167 25.9033 22.28 26 22 26H21C20.72 26 20.4833 25.9033 20.29 25.71C20.0967 25.5167 20 25.28 20 25V24H6V25C6 25.28 5.90333 25.5167 5.71 25.71C5.51667 25.9033 5.28 26 5 26H4C3.72 26 3.48333 25.9033 3.29 25.71C3.09667 25.5167 3 25.28 3 25V15L5.44 10.1C5.61333 9.76667 5.86 9.5 6.18 9.3C6.5 9.1 6.85333 9 7.24 9H10V7H16V9H18.76C19.1467 9 19.5 9.1 19.82 9.3C20.14 9.5 20.3867 9.76667 20.56 10.1L23 15ZM21 17H5V22H21V17ZM5.24 15H20.76L18.76 11H7.24L5.24 15ZM7.5 21C7.08667 21 6.73333 20.8533 6.44 20.56C6.14667 20.2667 6 19.9133 6 19.5C6 19.0867 6.14667 18.7333 6.44 18.44C6.73333 18.1467 7.08667 18 7.5 18C7.91333 18 8.26667 18.1467 8.56 18.44C8.85333 18.7333 9 19.0867 9 19.5C9 19.9133 8.85333 20.2667 8.56 20.56C8.26667 20.8533 7.91333 21 7.5 21ZM18.5 21C18.0867 21 17.7333 20.8533 17.44 20.56C17.1467 20.2667 17 19.9133 17 19.5C17 19.0867 17.1467 18.7333 17.44 18.44C17.7333 18.1467 18.0867 18 18.5 18C18.9133 18 19.2667 18.1467 19.56 18.44C19.8533 18.7333 20 19.0867 20 19.5C20 19.9133 19.8533 20.2667 19.56 20.56C19.2667 20.8533 18.9133 21 18.5 21Z" fill="#402B8F"/>
</svg>
