<svg width="17" height="16" viewBox="0 0 17 16" fill="none" xmlns="http://www.w3.org/2000/svg">
<path d="M7.41488 9.31904V10.6524C6.69488 10.6524 6.02377 10.8346 5.40154 11.199C4.7971 11.5546 4.3171 12.0301 3.96154 12.6257C3.5971 13.2479 3.41488 13.9235 3.41488 14.6524H2.08154C2.08154 13.6835 2.32599 12.7857 2.81488 11.959C3.28599 11.1501 3.92154 10.5101 4.72154 10.039C5.54821 9.55904 6.44599 9.31904 7.41488 9.31904ZM7.41488 8.65237C6.69488 8.65237 6.02377 8.47015 5.40154 8.1057C4.7971 7.75015 4.3171 7.27015 3.96154 6.6657C3.5971 6.04348 3.41488 5.37015 3.41488 4.6457C3.41488 3.92126 3.5971 3.24792 3.96154 2.6257C4.3171 2.03015 4.7971 1.55459 5.40154 1.19904C6.02377 0.834592 6.6971 0.652369 7.42154 0.652369C8.14599 0.652369 8.81932 0.834592 9.44154 1.19904C10.0371 1.55459 10.5127 2.03015 10.8682 2.6257C11.2327 3.24792 11.4149 3.92126 11.4149 4.6457C11.4149 5.37015 11.2327 6.04348 10.8682 6.6657C10.5127 7.27015 10.0371 7.75015 9.44154 8.1057C8.81932 8.47015 8.14377 8.65237 7.41488 8.65237ZM7.41488 7.31904C7.89488 7.31904 8.33932 7.19904 8.74821 6.95904C9.1571 6.71904 9.48154 6.39459 9.72154 5.9857C9.96154 5.57681 10.0815 5.13237 10.0815 4.65237C10.0815 4.17237 9.96154 3.72793 9.72154 3.31904C9.48154 2.91015 9.1571 2.5857 8.74821 2.3457C8.33932 2.1057 7.89488 1.9857 7.41488 1.9857C6.93488 1.9857 6.49043 2.1057 6.08154 2.3457C5.67265 2.5857 5.34821 2.91015 5.10821 3.31904C4.86821 3.72793 4.74821 4.17237 4.74821 4.65237C4.74821 5.13237 4.86821 5.57681 5.10821 5.9857C5.34821 6.39459 5.67265 6.71904 6.08154 6.95904C6.49043 7.19904 6.93488 7.31904 7.41488 7.31904ZM11.4149 14.319L9.45488 15.3457L9.82821 13.159L8.24154 11.6257L10.4415 11.3057L11.4149 9.31904L12.4015 11.3057L14.5882 11.6257L13.0015 13.159L13.3749 15.3457L11.4149 14.319Z" fill="black"/>
</svg>
