<svg width="26" height="32" viewBox="0 0 26 32" fill="none" xmlns="http://www.w3.org/2000/svg">
<path d="M22.5303 7C22.8103 7 23.0469 7.09667 23.2403 7.29C23.4336 7.48333 23.5303 7.72 23.5303 8V24C23.5303 24.28 23.4336 24.5167 23.2403 24.71C23.0469 24.9033 22.8103 25 22.5303 25H4.53027C4.25027 25 4.01361 24.9033 3.82027 24.71C3.62694 24.5167 3.53027 24.28 3.53027 24V8C3.53027 7.72 3.62694 7.48333 3.82027 7.29C4.01361 7.09667 4.25027 7 4.53027 7H22.5303ZM12.5303 17H5.53027V23H12.5303V17ZM21.5303 17H14.5303V23H21.5303V17ZM12.5303 9H5.53027V15H12.5303V9ZM21.5303 9H14.5303V15H21.5303V9Z" fill="#402B8F"/>
</svg>
