<svg width="26" height="32" viewBox="0 0 26 32" fill="none" xmlns="http://www.w3.org/2000/svg">
<path d="M13.5303 13C12.9836 13 12.4803 13.1333 12.0203 13.4C11.5603 13.6667 11.1969 14.03 10.9303 14.49C10.6636 14.95 10.5303 15.4533 10.5303 16C10.5303 16.5467 10.6636 17.05 10.9303 17.51C11.1969 17.97 11.5603 18.3333 12.0203 18.6C12.4803 18.8667 12.9836 19 13.5303 19C14.0769 19 14.5803 18.8667 15.0403 18.6C15.5003 18.3333 15.8636 17.97 16.1303 17.51C16.3969 17.05 16.5303 16.5467 16.5303 16C16.5303 15.4533 16.3969 14.95 16.1303 14.49C15.8636 14.03 15.5003 13.6667 15.0403 13.4C14.5803 13.1333 14.0769 13 13.5303 13ZM13.5303 11C14.4369 11 15.2736 11.2233 16.0403 11.67C16.8069 12.1167 17.4136 12.7233 17.8603 13.49C18.3069 14.2567 18.5303 15.0933 18.5303 16C18.5303 16.9067 18.3069 17.7433 17.8603 18.51C17.4136 19.2767 16.8069 19.8833 16.0403 20.33C15.2736 20.7767 14.4369 21 13.5303 21C12.6236 21 11.7869 20.7767 11.0203 20.33C10.2536 19.8833 9.64694 19.2767 9.20027 18.51C8.75361 17.7433 8.53027 16.9067 8.53027 16C8.53027 15.0933 8.75361 14.2567 9.20027 13.49C9.64694 12.7233 10.2536 12.1167 11.0203 11.67C11.7869 11.2233 12.6236 11 13.5303 11ZM20.0303 10.74C20.0303 11.0867 19.9069 11.3833 19.6603 11.63C19.4136 11.8767 19.1203 12 18.7803 12C18.4403 12 18.1469 11.8767 17.9003 11.63C17.6536 11.3833 17.5303 11.09 17.5303 10.75C17.5303 10.41 17.6536 10.1167 17.9003 9.87C18.1469 9.62333 18.4403 9.5 18.7803 9.5C19.1203 9.5 19.4136 9.62333 19.6603 9.87C19.9069 10.1167 20.0303 10.4067 20.0303 10.74ZM13.5303 8C12.3036 8 11.4703 8.00333 11.0303 8.01C10.5903 8.01667 10.0836 8.03333 9.51027 8.06C8.79027 8.08667 8.19027 8.19333 7.71027 8.38C7.29694 8.54 6.93361 8.77667 6.62027 9.09C6.30694 9.40333 6.07027 9.76667 5.91027 10.18C5.72361 10.66 5.61694 11.26 5.59027 11.98C5.56361 12.5267 5.54694 13.0167 5.54027 13.45C5.53361 13.8833 5.53027 14.7333 5.53027 16C5.53027 17.2267 5.53361 18.06 5.54027 18.5C5.54694 18.94 5.56361 19.4467 5.59027 20.02C5.61694 20.74 5.72361 21.34 5.91027 21.82C6.07027 22.2333 6.30694 22.5967 6.62027 22.91C6.93361 23.2233 7.29694 23.4533 7.71027 23.6C8.19027 23.8 8.79027 23.9133 9.51027 23.94C10.0569 23.9667 10.5469 23.9833 10.9803 23.99C11.4136 23.9967 12.2636 24 13.5303 24C14.7569 24 15.5903 23.9967 16.0303 23.99C16.4703 23.9833 16.9769 23.9667 17.5503 23.94C18.2703 23.9133 18.8703 23.8067 19.3503 23.62C19.7636 23.46 20.1269 23.2233 20.4403 22.91C20.7536 22.5967 20.9836 22.2333 21.1303 21.82C21.3303 21.34 21.4436 20.74 21.4703 20.02C21.4969 19.4733 21.5136 18.9833 21.5203 18.55C21.5269 18.1167 21.5303 17.2667 21.5303 16C21.5303 14.7733 21.5269 13.94 21.5203 13.5C21.5136 13.06 21.4969 12.5533 21.4703 11.98C21.4436 11.26 21.3369 10.66 21.1503 10.18C20.9903 9.76667 20.7536 9.40333 20.4403 9.09C20.1269 8.77667 19.7636 8.54 19.3503 8.38C18.8703 8.19333 18.2703 8.08667 17.5503 8.06C17.0036 8.03333 16.5136 8.01667 16.0803 8.01C15.6469 8.00333 14.7969 8 13.5303 8ZM13.5303 6C14.8369 6 15.7303 6.00667 16.2103 6.02C16.6103 6.02 17.0903 6.03333 17.6503 6.06C18.5836 6.1 19.3903 6.25333 20.0703 6.52C20.7503 6.78667 21.3436 7.17333 21.8503 7.68C22.3569 8.18667 22.7436 8.78 23.0103 9.46C23.2769 10.14 23.4303 10.9467 23.4703 11.88C23.4969 12.4533 23.5103 12.9333 23.5103 13.32C23.5236 13.8267 23.5303 14.7267 23.5303 16.02C23.5303 17.3133 23.5236 18.2 23.5103 18.68C23.5103 19.08 23.4969 19.56 23.4703 20.12C23.4303 21.0533 23.2769 21.86 23.0103 22.54C22.7436 23.22 22.3569 23.8133 21.8503 24.32C21.3436 24.8267 20.7503 25.2133 20.0703 25.48C19.3903 25.7467 18.5836 25.9 17.6503 25.94C17.0769 25.9667 16.5969 25.98 16.2103 25.98C15.7036 25.9933 14.8036 26 13.5103 26C12.2169 26 11.3303 25.9933 10.8503 25.98C10.4503 25.98 9.97027 25.9667 9.41027 25.94C8.47694 25.9 7.67027 25.7467 6.99027 25.48C6.31027 25.2133 5.71694 24.8267 5.21027 24.32C4.70361 23.8133 4.31694 23.22 4.05027 22.54C3.78361 21.86 3.63027 21.0533 3.59027 20.12C3.56361 19.5467 3.55027 19.0667 3.55027 18.68C3.53694 18.1733 3.53027 17.2733 3.53027 15.98C3.53027 14.6867 3.53694 13.8 3.55027 13.32C3.55027 12.92 3.56361 12.44 3.59027 11.88C3.63027 10.9467 3.78361 10.14 4.05027 9.46C4.31694 8.78 4.70361 8.18667 5.21027 7.68C5.71694 7.17333 6.31027 6.78667 6.99027 6.52C7.67027 6.25333 8.47694 6.1 9.41027 6.06C9.98361 6.03333 10.4636 6.02 10.8503 6.02C11.3569 6.00667 12.2503 6 13.5303 6Z" fill="#402B8F"/>
</svg>
