<svg width="18" height="16" viewBox="0 0 18 16" fill="none" xmlns="http://www.w3.org/2000/svg">
<path d="M2.86523 2.66667C2.86523 2.48 2.92968 2.32222 3.05857 2.19333C3.18746 2.06444 3.34523 2 3.5319 2H14.1986C14.3852 2 14.543 2.06444 14.6719 2.19333C14.8008 2.32222 14.8652 2.48 14.8652 2.66667V13.3333C14.8652 13.52 14.8008 13.6778 14.6719 13.8067C14.543 13.9356 14.3852 14 14.1986 14H3.5319C3.34523 14 3.18746 13.9356 3.05857 13.8067C2.92968 13.6778 2.86523 13.52 2.86523 13.3333V2.66667ZM4.19857 3.33333V12.6667H13.5319V3.33333H4.19857ZM7.94523 5.61333L11.1986 7.77333C11.2608 7.81778 11.2986 7.87556 11.3119 7.94667C11.3252 8.01778 11.3141 8.08444 11.2786 8.14667C11.2519 8.17333 11.2252 8.2 11.1986 8.22667L7.94523 10.3867C7.88301 10.4311 7.81635 10.4467 7.74523 10.4333C7.67412 10.42 7.61635 10.3822 7.5719 10.32C7.54523 10.2756 7.5319 10.2267 7.5319 10.1733V5.82667C7.5319 5.75556 7.55857 5.69333 7.6119 5.64C7.66523 5.58667 7.72746 5.56 7.79857 5.56C7.8519 5.56 7.90079 5.57778 7.94523 5.61333Z" fill="black"/>
</svg>
