<svg width="26" height="32" viewBox="0 0 26 32" fill="none" xmlns="http://www.w3.org/2000/svg">
<path d="M20.3724 11.2895H22.4776C22.7724 11.2895 23.0215 11.3913 23.225 11.5948C23.4285 11.7983 23.5303 12.0474 23.5303 12.3422V24.9737C23.5303 25.2685 23.4285 25.5176 23.225 25.7211C23.0215 25.9246 22.7724 26.0264 22.4776 26.0264H14.0566C13.7619 26.0264 13.5127 25.9246 13.3092 25.7211C13.1057 25.5176 13.004 25.2685 13.004 24.9737V23.9211H4.58291C4.28817 23.9211 4.03905 23.8193 3.83554 23.6158C3.63203 23.4123 3.53027 23.1632 3.53027 22.8685V6.02637C3.53027 5.73163 3.63203 5.48251 3.83554 5.279C4.03905 5.07549 4.28817 4.97374 4.58291 4.97374H19.3197C19.6145 4.97374 19.8636 5.07549 20.0671 5.279C20.2706 5.48251 20.3724 5.73163 20.3724 6.02637V11.2895ZM18.2671 11.2895V7.079H5.63554V21.8158H13.004V12.3422C13.004 12.0474 13.1057 11.7983 13.3092 11.5948C13.5127 11.3913 13.7619 11.2895 14.0566 11.2895H18.2671ZM15.1092 13.3948V23.9211H21.425V13.3948H15.1092Z" fill="#2B348F"/>
</svg>
