<svg width="26" height="32" viewBox="0 0 26 32" fill="none" xmlns="http://www.w3.org/2000/svg">
<path d="M22.5303 25H4.53027C4.25027 25 4.01361 24.9033 3.82027 24.71C3.62694 24.5167 3.53027 24.28 3.53027 24V16.48C3.53027 16.1867 3.64361 15.94 3.87027 15.74L7.53027 12.54V8C7.53027 7.72 7.62694 7.48333 7.82027 7.29C8.01361 7.09667 8.25027 7 8.53027 7H22.5303C22.8103 7 23.0469 7.09667 23.2403 7.29C23.4336 7.48333 23.5303 7.72 23.5303 8V24C23.5303 24.28 23.4336 24.5167 23.2403 24.71C23.0469 24.9033 22.8103 25 22.5303 25ZM10.5303 23H13.5303V16.94L9.53027 13.46L5.53027 16.94V23H8.53027V19H10.5303V23ZM15.5303 23H21.5303V9H9.53027V11.12C9.78361 11.12 10.0036 11.2067 10.1903 11.38L15.1903 15.74C15.4169 15.94 15.5303 16.1867 15.5303 16.48V23ZM17.5303 15H19.5303V17H17.5303V15ZM17.5303 19H19.5303V21H17.5303V19ZM17.5303 11H19.5303V13H17.5303V11ZM13.5303 11H15.5303V13H13.5303V11Z" fill="#402B8F"/>
</svg>
