<svg width="26" height="32" viewBox="0 0 26 32" fill="none" xmlns="http://www.w3.org/2000/svg">
<path d="M18.5806 23.9984L20.6202 25.6981V26.2646H4.75669V25.6981L6.79628 23.9984H4.75669C4.34877 23.9984 3.97107 23.8965 3.62359 23.6925C3.2761 23.4885 3.00038 23.2128 2.79642 22.8653C2.59246 22.5178 2.49048 22.1401 2.49048 21.7322V9.26805C2.49048 8.45221 2.69444 7.69681 3.10236 7.00184C3.51027 6.30687 4.06172 5.75542 4.75669 5.3475C5.45166 4.93958 6.20707 4.73562 7.02291 4.73562H18.354C19.1698 4.73562 19.9252 4.93958 20.6202 5.3475C21.3152 5.75542 21.8666 6.30687 22.2745 7.00184C22.6824 7.69681 22.8864 8.45221 22.8864 9.26805V21.7322C22.8864 22.1401 22.7844 22.5178 22.5805 22.8653C22.3765 23.2128 22.1008 23.4885 21.7533 23.6925C21.4058 23.8965 21.0281 23.9984 20.6202 23.9984H18.5806ZM7.02291 7.00184C6.61499 7.00184 6.23728 7.10382 5.8898 7.30778C5.54231 7.51173 5.26659 7.78746 5.06263 8.13494C4.85867 8.48243 4.75669 8.86013 4.75669 9.26805V21.7322H20.6202V9.26805C20.6202 8.86013 20.5182 8.48243 20.3142 8.13494C20.1103 7.78746 19.8346 7.51173 19.4871 7.30778C19.1396 7.10382 18.7619 7.00184 18.354 7.00184H7.02291ZM12.6884 20.5991C12.2805 20.5991 11.9028 20.4971 11.5553 20.2932C11.2078 20.0892 10.9321 19.8135 10.7282 19.466C10.5242 19.1185 10.4222 18.7408 10.4222 18.3329C10.4222 17.925 10.5242 17.5473 10.7282 17.1998C10.9321 16.8523 11.2078 16.5766 11.5553 16.3726C11.9028 16.1687 12.2805 16.0667 12.6884 16.0667C13.0964 16.0667 13.4741 16.1687 13.8215 16.3726C14.169 16.5766 14.4448 16.8523 14.6487 17.1998C14.8527 17.5473 14.9547 17.925 14.9547 18.3329C14.9547 18.7408 14.8527 19.1185 14.6487 19.466C14.4448 19.8135 14.169 20.0892 13.8215 20.2932C13.4741 20.4971 13.0964 20.5991 12.6884 20.5991ZM5.8898 9.26805H19.4871V13.8005H5.8898V9.26805Z" fill="#402B8F"/>
</svg>
