<svg width="20" height="20" viewBox="0 0 20 20" fill="none" xmlns="http://www.w3.org/2000/svg">
<path d="M15.3084 2.19172L11.6667 5.83338L10.3417 4.50838C10.0295 4.19797 9.60706 4.02373 9.16675 4.02373C8.72644 4.02373 8.30402 4.19797 7.99175 4.50838L6.66675 5.83338L14.1667 13.3334L15.4917 12.0084C15.8022 11.6961 15.9764 11.2737 15.9764 10.8334C15.9764 10.3931 15.8022 9.97065 15.4917 9.65838L14.1667 8.33338L17.8084 4.69172C18.1399 4.3602 18.3262 3.91056 18.3262 3.44172C18.3262 2.97288 18.1399 2.52324 17.8084 2.19172C17.4769 1.8602 17.0273 1.67395 16.5584 1.67395C16.0896 1.67395 15.6399 1.8602 15.3084 2.19172Z" stroke="#402B8F" stroke-width="1.66667" stroke-linecap="round" stroke-linejoin="round"/>
<path d="M7.50008 6.66663C5.83341 9.16663 4.16675 9.58329 1.66675 9.99996L8.33341 18.3333C10.0001 17.5 13.3334 14.1666 13.3334 12.5" stroke="#402B8F" stroke-width="1.66667" stroke-linecap="round" stroke-linejoin="round"/>
<path d="M12.0833 14.5833L3.75 12.5" stroke="#402B8F" stroke-width="1.66667" stroke-linecap="round" stroke-linejoin="round"/>
</svg>
