<svg width="23" height="21" viewBox="0 0 23 21" fill="none" xmlns="http://www.w3.org/2000/svg">
<path d="M11.5306 19.25C10.3523 19.25 9.2261 19.0225 8.15184 18.5675C7.12379 18.1242 6.20836 17.4971 5.40555 16.6862C4.60275 15.8754 3.98187 14.9508 3.54293 13.9125C3.09244 12.8275 2.86719 11.69 2.86719 10.5C2.86719 9.31 3.09244 8.1725 3.54293 7.0875C3.98187 6.04917 4.60275 5.12458 5.40555 4.31375C6.20836 3.50292 7.12379 2.87583 8.15184 2.4325C9.2261 1.9775 10.3523 1.75 11.5306 1.75C12.7088 1.75 13.835 1.9775 14.9093 2.4325C15.9373 2.87583 16.8527 3.50292 17.6556 4.31375C18.4584 5.12458 19.0792 6.04917 19.5182 7.0875C19.9687 8.1725 20.1939 9.31 20.1939 10.5C20.1939 11.69 19.9687 12.8275 19.5182 13.9125C19.0792 14.9508 18.4584 15.8754 17.6556 16.6862C16.8527 17.4971 15.9373 18.1242 14.9093 18.5675C13.835 19.0225 12.7088 19.25 11.5306 19.25ZM9.55531 17.2025C8.68897 15.3592 8.19805 13.4167 8.08253 11.375H4.65184C4.76735 12.285 5.04747 13.1367 5.49219 13.93C5.93691 14.7233 6.50869 15.4029 7.20753 15.9688C7.90638 16.5346 8.68897 16.9458 9.55531 17.2025ZM9.83253 11.375C9.9596 13.475 10.5256 15.4467 11.5306 17.29C12.5355 15.4467 13.1015 13.475 13.2286 11.375H9.83253ZM18.4093 11.375H14.9786C14.8631 13.4167 14.3779 15.3592 13.5231 17.2025C14.3779 16.9458 15.1547 16.5346 15.8536 15.9688C16.5524 15.4029 17.1242 14.7233 17.5689 13.93C18.0136 13.1367 18.2938 12.285 18.4093 11.375ZM4.65184 9.625H8.08253C8.19805 7.58333 8.68897 5.64083 9.55531 3.7975C8.68897 4.05417 7.90638 4.46542 7.20753 5.03125C6.50869 5.59708 5.93691 6.27667 5.49219 7.07C5.04747 7.86333 4.76735 8.715 4.65184 9.625ZM9.83253 9.625H13.2286C13.1015 7.525 12.5355 5.55333 11.5306 3.71C10.5256 5.55333 9.9596 7.525 9.83253 9.625ZM13.5231 3.7975C14.3779 5.64083 14.8631 7.58333 14.9786 9.625H18.4093C18.2938 8.715 18.0136 7.86333 17.5689 7.07C17.1242 6.27667 16.5524 5.59708 15.8536 5.03125C15.1547 4.46542 14.3779 4.05417 13.5231 3.7975Z" fill="#402B8F"/>
</svg>
