<svg width="20" height="33" viewBox="0 0 20 33" fill="none" xmlns="http://www.w3.org/2000/svg">
<path d="M16.6654 14.8328C16.6654 18.9949 12.0495 23.3296 10.4995 24.6684C10.3551 24.777 10.1794 24.8357 9.9987 24.8357C9.81803 24.8357 9.64226 24.777 9.49786 24.6684C7.94786 23.3296 3.33203 18.9949 3.33203 14.8328C3.33203 13.0642 4.03441 11.3679 5.28465 10.1173C6.53489 8.86666 8.23059 8.16406 9.9987 8.16406C11.7668 8.16406 13.4625 8.86666 14.7127 10.1173C15.963 11.3679 16.6654 13.0642 16.6654 14.8328Z" stroke="white" stroke-width="1.01042" stroke-linecap="round" stroke-linejoin="round"/>
<path d="M10 17.3336C11.3807 17.3336 12.5 16.214 12.5 14.8328C12.5 13.4517 11.3807 12.332 10 12.332C8.61929 12.332 7.5 13.4517 7.5 14.8328C7.5 16.214 8.61929 17.3336 10 17.3336Z" stroke="white" stroke-width="1.01042" stroke-linecap="round" stroke-linejoin="round"/>
</svg>
