<svg width="23" height="21" viewBox="0 0 23 21" fill="none" xmlns="http://www.w3.org/2000/svg">
<path d="M6.74791 4.375C6.73636 4.73667 6.6324 5.06333 6.43603 5.355C6.23966 5.64667 5.97976 5.85958 5.65633 5.99375C5.3329 6.12792 4.99791 6.16 4.65138 6.09C4.30485 6.02 4.0074 5.85667 3.75905 5.6C3.5107 5.34333 3.35765 5.04 3.29989 4.69C3.24214 4.34 3.28257 4.00167 3.42118 3.675C3.5598 3.34833 3.77927 3.08875 4.0796 2.89625C4.37993 2.70375 4.70914 2.61333 5.06722 2.625C5.52927 2.63667 5.92489 2.81167 6.2541 3.15C6.58331 3.48833 6.74791 3.89667 6.74791 4.375ZM6.79989 7.42H3.33455V18.375H6.79989V7.42ZM12.2751 7.42H8.82712V18.375H12.2405V12.635C12.2405 12.0167 12.3791 11.4917 12.6563 11.06C12.922 10.6633 13.2628 10.3892 13.6786 10.2375C14.0944 10.0858 14.5103 10.0742 14.9261 10.2025C15.342 10.3308 15.677 10.5875 15.9311 10.9725C16.2199 11.4158 16.3643 11.97 16.3643 12.635V18.375H19.7949V11.445C19.7949 10.4183 19.5755 9.54917 19.1365 8.8375C18.7553 8.21917 18.224 7.7525 17.5425 7.4375C16.9187 7.16917 16.243 7.0525 15.5152 7.0875C14.8106 7.1225 14.158 7.30042 13.5573 7.62125C12.9567 7.94208 12.5177 8.365 12.2405 8.89L12.2751 7.42Z" fill="#402B8F"/>
</svg>
