<svg width="23" height="21" viewBox="0 0 23 21" fill="none" xmlns="http://www.w3.org/2000/svg">
<path d="M14.4934 5.23242H19.3276C19.5702 5.23242 19.7752 5.31701 19.9427 5.48617C20.1102 5.65534 20.1939 5.86242 20.1939 6.10742V18.3574C20.1939 18.5908 20.1102 18.7949 19.9427 18.9699C19.7752 19.1449 19.5702 19.2324 19.3276 19.2324H3.73352C3.49095 19.2324 3.28592 19.1478 3.11843 18.9787C2.95093 18.8095 2.86719 18.6024 2.86719 18.3574V6.10742C2.86719 5.86242 2.95093 5.65534 3.11843 5.48617C3.28592 5.31701 3.49095 5.23242 3.73352 5.23242H8.56768L6.38451 3.00992L7.59739 1.76742L11.0281 5.23242H12.033L15.4637 1.76742L16.6766 3.00992L14.4934 5.23242ZM4.59986 6.98242V17.4824H18.4612V6.98242H4.59986Z" fill="#402B8F"/>
</svg>
