<svg width="20" height="20" viewBox="0 0 20 20" fill="none" xmlns="http://www.w3.org/2000/svg">
<path d="M3.7526 13.7498C2.5026 14.7998 2.08594 17.9164 2.08594 17.9164C2.08594 17.9164 5.2026 17.4998 6.2526 16.2498C6.84427 15.5498 6.83594 14.4748 6.1776 13.8248C5.85369 13.5156 5.42702 13.337 4.97946 13.3231C4.5319 13.3093 4.095 13.4612 3.7526 13.7498Z" stroke="#402B8F" stroke-width="1.66667" stroke-linecap="round" stroke-linejoin="round"/>
<path d="M10 12.5L7.5 9.99998C7.94345 8.84951 8.50184 7.7467 9.16667 6.70832C10.1377 5.1558 11.4897 3.87752 13.0942 2.99506C14.6986 2.11259 16.5022 1.65529 18.3333 1.66665C18.3333 3.93332 17.6833 7.91665 13.3333 10.8333C12.2807 11.4989 11.164 12.0573 10 12.5Z" stroke="#402B8F" stroke-width="1.66667" stroke-linecap="round" stroke-linejoin="round"/>
<path d="M7.5026 9.99993H3.33594C3.33594 9.99993 3.79427 7.47493 5.0026 6.6666C6.3526 5.7666 9.16927 6.6666 9.16927 6.6666" stroke="#402B8F" stroke-width="1.66667" stroke-linecap="round" stroke-linejoin="round"/>
<path d="M10 12.5V16.6666C10 16.6666 12.525 16.2083 13.3333 15C14.2333 13.65 13.3333 10.8333 13.3333 10.8333" stroke="#402B8F" stroke-width="1.66667" stroke-linecap="round" stroke-linejoin="round"/>
</svg>
