<svg width="28" height="28" viewBox="0 0 28 28" fill="none" xmlns="http://www.w3.org/2000/svg">
<path d="M15.7513 8.16667C16.0735 8.16667 16.3346 7.9055 16.3346 7.58333C16.3346 7.26117 16.0735 7 15.7513 7C15.4291 7 15.168 7.26117 15.168 7.58333C15.168 7.9055 15.4291 8.16667 15.7513 8.16667Z" fill="#402B8F" stroke="#402B8F" stroke-width="2.33333" stroke-linecap="round" stroke-linejoin="round"/>
<path d="M20.4154 12.8332C20.7375 12.8332 20.9987 12.572 20.9987 12.2498C20.9987 11.9277 20.7375 11.6665 20.4154 11.6665C20.0932 11.6665 19.832 11.9277 19.832 12.2498C19.832 12.572 20.0932 12.8332 20.4154 12.8332Z" fill="#402B8F" stroke="#402B8F" stroke-width="2.33333" stroke-linecap="round" stroke-linejoin="round"/>
<path d="M9.91536 9.33317C10.2375 9.33317 10.4987 9.072 10.4987 8.74984C10.4987 8.42767 10.2375 8.1665 9.91536 8.1665C9.5932 8.1665 9.33203 8.42767 9.33203 8.74984C9.33203 9.072 9.5932 9.33317 9.91536 9.33317Z" fill="#402B8F" stroke="#402B8F" stroke-width="2.33333" stroke-linecap="round" stroke-linejoin="round"/>
<path d="M7.58333 15.1667C7.9055 15.1667 8.16667 14.9055 8.16667 14.5833C8.16667 14.2612 7.9055 14 7.58333 14C7.26117 14 7 14.2612 7 14.5833C7 14.9055 7.26117 15.1667 7.58333 15.1667Z" fill="#402B8F" stroke="#402B8F" stroke-width="2.33333" stroke-linecap="round" stroke-linejoin="round"/>
<path d="M13.9987 2.3335C7.58203 2.3335 2.33203 7.5835 2.33203 14.0002C2.33203 20.4168 7.58203 25.6668 13.9987 25.6668C15.079 25.6668 15.9214 24.7965 15.9214 23.6975C15.9214 23.1877 15.7114 22.7233 15.4115 22.385C15.0732 22.0478 14.9005 21.6243 14.9005 21.0725C14.8961 20.8157 14.9434 20.5607 15.0397 20.3226C15.1359 20.0845 15.2791 19.8682 15.4606 19.6866C15.6422 19.505 15.8585 19.3618 16.0966 19.2656C16.3347 19.1694 16.5898 19.1221 16.8465 19.1265H19.1752C22.7347 19.1265 25.656 16.2063 25.656 12.6468C25.6245 7.01416 20.3699 2.3335 13.9987 2.3335Z" stroke="#402B8F" stroke-width="2.33333" stroke-linecap="round" stroke-linejoin="round"/>
</svg>
