<svg width="28" height="28" viewBox="0 0 28 28" fill="none" xmlns="http://www.w3.org/2000/svg">
<path d="M18.668 15.1667L24.7615 19.229C24.8493 19.2874 24.9514 19.321 25.0568 19.326C25.1622 19.3311 25.2669 19.3074 25.36 19.2576C25.453 19.2078 25.5308 19.1337 25.585 19.0432C25.6392 18.9527 25.6679 18.8492 25.668 18.7437V9.18165C25.668 9.07901 25.6409 8.97818 25.5895 8.88934C25.5381 8.8005 25.4642 8.72679 25.3752 8.67567C25.2862 8.62454 25.1853 8.5978 25.0827 8.59815C24.98 8.5985 24.8793 8.62592 24.7906 8.67765L18.668 12.25" stroke="#402B8F" stroke-width="2.33333" stroke-linecap="round" stroke-linejoin="round"/>
<path d="M16.332 7H4.66536C3.3767 7 2.33203 8.04467 2.33203 9.33333V18.6667C2.33203 19.9553 3.3767 21 4.66536 21H16.332C17.6207 21 18.6654 19.9553 18.6654 18.6667V9.33333C18.6654 8.04467 17.6207 7 16.332 7Z" stroke="#402B8F" stroke-width="2.33333" stroke-linecap="round" stroke-linejoin="round"/>
</svg>
