<svg width="28" height="28" viewBox="0 0 28 28" fill="none" xmlns="http://www.w3.org/2000/svg">
<path d="M18.326 24.842C18.1072 25.0607 17.8105 25.1836 17.5011 25.1836C17.1918 25.1836 16.8951 25.0607 16.6763 24.842L14.826 22.9917C14.6072 22.7729 14.4844 22.4762 14.4844 22.1668C14.4844 21.8575 14.6072 21.5608 14.826 21.342L21.343 14.825C21.5617 14.6063 21.8584 14.4834 22.1678 14.4834C22.4772 14.4834 22.7738 14.6063 22.9926 14.825L24.843 16.6753C25.0617 16.8941 25.1845 17.1908 25.1845 17.5001C25.1845 17.8095 25.0617 18.1062 24.843 18.325L18.326 24.842Z" stroke="#402B8F" stroke-width="2.33333" stroke-linecap="round" stroke-linejoin="round"/>
<path d="M20.9987 15.1668L19.3945 7.14717C19.3509 6.92898 19.2458 6.72782 19.0916 6.56741C18.9374 6.407 18.7405 6.29403 18.5242 6.24184L3.77287 2.36617C3.57854 2.31918 3.37539 2.32293 3.18292 2.37704C2.99045 2.43116 2.81511 2.53383 2.67374 2.6752C2.53237 2.81658 2.4297 2.99191 2.37558 3.18438C2.32146 3.37685 2.31772 3.58 2.36471 3.77434L6.24037 18.5257C6.29257 18.742 6.40553 18.9388 6.56594 19.093C6.72635 19.2473 6.92751 19.3524 7.1457 19.396L15.1654 21.0002" stroke="#402B8F" stroke-width="2.33333" stroke-linecap="round" stroke-linejoin="round"/>
<path d="M2.68359 2.68311L11.1839 11.1834" stroke="#402B8F" stroke-width="2.33333" stroke-linecap="round" stroke-linejoin="round"/>
<path d="M12.8333 15.1667C14.122 15.1667 15.1667 14.122 15.1667 12.8333C15.1667 11.5447 14.122 10.5 12.8333 10.5C11.5447 10.5 10.5 11.5447 10.5 12.8333C10.5 14.122 11.5447 15.1667 12.8333 15.1667Z" stroke="#402B8F" stroke-width="2.33333" stroke-linecap="round" stroke-linejoin="round"/>
</svg>
