<svg width="28" height="28" viewBox="0 0 28 28" fill="none" xmlns="http://www.w3.org/2000/svg">
<path d="M3.5 12.8333L24.5 7V21L3.5 16.3333V12.8333Z" stroke="#402B8F" stroke-width="2.33333" stroke-linecap="round" stroke-linejoin="round"/>
<path d="M13.5337 19.6001C13.4111 20.0444 13.2022 20.4602 12.919 20.8238C12.6357 21.1873 12.2836 21.4916 11.8827 21.7191C11.4819 21.9466 11.0402 22.0929 10.5828 22.1497C10.1254 22.2065 9.66131 22.1726 9.217 22.0501C8.77269 21.9275 8.35688 21.7186 7.9933 21.4354C7.62972 21.1521 7.32549 20.8 7.09799 20.3991C6.87049 19.9983 6.72416 19.5566 6.66737 19.0992C6.61058 18.6418 6.64443 18.1777 6.767 17.7334" stroke="#402B8F" stroke-width="2.33333" stroke-linecap="round" stroke-linejoin="round"/>
</svg>
