<svg width="20" height="20" viewBox="0 0 20 20" fill="none" xmlns="http://www.w3.org/2000/svg">
<path d="M9.99992 16.6667C11.768 16.6667 13.4637 15.9643 14.714 14.7141C15.9642 13.4638 16.6666 11.7682 16.6666 10C16.6666 8.23193 15.9642 6.53624 14.714 5.286C13.4637 4.03575 11.768 3.33337 9.99992 3.33337C8.23181 3.33337 6.53612 4.03575 5.28587 5.286C4.03563 6.53624 3.33325 8.23193 3.33325 10C3.33325 11.7682 4.03563 13.4638 5.28587 14.7141C6.53612 15.9643 8.23181 16.6667 9.99992 16.6667Z" stroke="#402B8F" stroke-width="1.66667" stroke-linecap="round" stroke-linejoin="round"/>
<path d="M9.99992 11.6667C10.4419 11.6667 10.8659 11.4911 11.1784 11.1786C11.491 10.866 11.6666 10.4421 11.6666 10C11.6666 9.55801 11.491 9.13409 11.1784 8.82153C10.8659 8.50897 10.4419 8.33337 9.99992 8.33337C9.55789 8.33337 9.13397 8.50897 8.82141 8.82153C8.50885 9.13409 8.33325 9.55801 8.33325 10C8.33325 10.4421 8.50885 10.866 8.82141 11.1786C9.13397 11.4911 9.55789 11.6667 9.99992 11.6667Z" stroke="#402B8F" stroke-width="1.66667" stroke-linecap="round" stroke-linejoin="round"/>
<path d="M10 1.66663V3.33329" stroke="#402B8F" stroke-width="1.66667" stroke-linecap="round" stroke-linejoin="round"/>
<path d="M10 18.3333V16.6666" stroke="#402B8F" stroke-width="1.66667" stroke-linecap="round" stroke-linejoin="round"/>
<path d="M14.1666 17.2167L13.3333 15.775" stroke="#402B8F" stroke-width="1.66667" stroke-linecap="round" stroke-linejoin="round"/>
<path d="M9.16659 8.55833L5.83325 2.78333" stroke="#402B8F" stroke-width="1.66667" stroke-linecap="round" stroke-linejoin="round"/>
<path d="M17.2166 14.1667L15.7749 13.3334" stroke="#402B8F" stroke-width="1.66667" stroke-linecap="round" stroke-linejoin="round"/>
<path d="M2.78345 5.83337L4.22511 6.66671" stroke="#402B8F" stroke-width="1.66667" stroke-linecap="round" stroke-linejoin="round"/>
<path d="M11.6667 10H18.3334" stroke="#402B8F" stroke-width="1.66667" stroke-linecap="round" stroke-linejoin="round"/>
<path d="M1.66675 10H3.33341" stroke="#402B8F" stroke-width="1.66667" stroke-linecap="round" stroke-linejoin="round"/>
<path d="M17.2166 5.83337L15.7749 6.66671" stroke="#402B8F" stroke-width="1.66667" stroke-linecap="round" stroke-linejoin="round"/>
<path d="M2.78345 14.1667L4.22511 13.3334" stroke="#402B8F" stroke-width="1.66667" stroke-linecap="round" stroke-linejoin="round"/>
<path d="M14.1666 2.78333L13.3333 4.22499" stroke="#402B8F" stroke-width="1.66667" stroke-linecap="round" stroke-linejoin="round"/>
<path d="M9.16659 11.4417L5.83325 17.2167" stroke="#402B8F" stroke-width="1.66667" stroke-linecap="round" stroke-linejoin="round"/>
</svg>
