<svg width="22" height="21" viewBox="0 0 22 21" fill="none" xmlns="http://www.w3.org/2000/svg">
<path d="M14.4655 7.21V13.5625C14.4655 14.5892 14.2114 15.5458 13.7031 16.4325C13.2064 17.2958 12.5307 17.9783 11.6759 18.48C10.798 18.9933 9.85081 19.25 8.83431 19.25C7.81781 19.25 6.87062 18.9933 5.99273 18.48C5.13794 17.9783 4.4622 17.2958 3.9655 16.4325C3.45725 15.5458 3.20312 14.5892 3.20312 13.5625C3.20312 12.5358 3.45725 11.5792 3.9655 10.6925C4.4622 9.82917 5.13794 9.14667 5.99273 8.645C6.87062 8.13167 7.81781 7.875 8.83431 7.875C9.27326 7.875 9.70643 7.9275 10.1338 8.0325V10.7975C9.72953 10.5992 9.29636 10.5 8.83431 10.5C8.27986 10.5 7.77161 10.6371 7.30956 10.9113C6.84751 11.1854 6.48077 11.5558 6.20931 12.0225C5.93786 12.4892 5.80213 13.0025 5.80213 13.5625C5.80213 14.1225 5.93786 14.6358 6.20931 15.1025C6.48077 15.5692 6.84751 15.9396 7.30956 16.2137C7.77161 16.4879 8.27986 16.625 8.83431 16.625C9.38877 16.625 9.89702 16.4879 10.3591 16.2137C10.8211 15.9396 11.1879 15.5692 11.4593 15.1025C11.7308 14.6358 11.8665 14.1225 11.8665 13.5625V1.75H14.4655C14.4655 2.54333 14.659 3.27542 15.0459 3.94625C15.4329 4.61708 15.9585 5.14792 16.6227 5.53875C17.2869 5.92958 18.0117 6.125 18.7972 6.125V8.75C17.9886 8.75 17.2089 8.61583 16.4581 8.3475C15.7304 8.07917 15.0662 7.7 14.4655 7.21Z" fill="#402B8F"/>
</svg>
