<svg width="18" height="16" viewBox="0 0 18 16" fill="none" xmlns="http://www.w3.org/2000/svg">
<path d="M3.94484 12.4416C1.35172 9.8485 1.35172 5.59312 3.94484 3" stroke="white" stroke-width="1.55599" stroke-linecap="round" stroke-linejoin="round"/>
<path d="M5.87267 10.513C4.34339 8.98373 4.34339 6.4571 5.87267 4.86133" stroke="white" stroke-width="1.55599" stroke-linecap="round" stroke-linejoin="round"/>
<path d="M8.66501 9.05024C9.39944 9.05024 9.99482 8.45486 9.99482 7.72043C9.99482 6.986 9.39944 6.39062 8.66501 6.39062C7.93058 6.39062 7.33521 6.986 7.33521 7.72043C7.33521 8.45486 7.93058 9.05024 8.66501 9.05024Z" stroke="white" stroke-width="1.55599" stroke-linecap="round" stroke-linejoin="round"/>
<path d="M11.4572 4.92773C12.9865 6.45701 12.9865 8.98364 11.4572 10.5794" stroke="white" stroke-width="1.55599" stroke-linecap="round" stroke-linejoin="round"/>
<path d="M13.3851 3C15.9783 5.59312 15.9783 9.78201 13.3851 12.3751" stroke="white" stroke-width="1.55599" stroke-linecap="round" stroke-linejoin="round"/>
</svg>
