<svg width="18" height="16" viewBox="0 0 18 16" fill="none" xmlns="http://www.w3.org/2000/svg">
<path d="M7.94661 9.31904V10.6524C7.22661 10.6524 6.5555 10.8346 5.93328 11.199C5.32884 11.5546 4.84884 12.0301 4.49328 12.6257C4.12884 13.2479 3.94661 13.9235 3.94661 14.6524H2.61328C2.61328 13.6835 2.85773 12.7857 3.34661 11.959C3.81773 11.1501 4.45328 10.5101 5.25328 10.039C6.07995 9.55904 6.97773 9.31904 7.94661 9.31904ZM7.94661 8.65237C7.22661 8.65237 6.5555 8.47015 5.93328 8.1057C5.32884 7.75015 4.84884 7.27015 4.49328 6.6657C4.12884 6.04348 3.94661 5.37015 3.94661 4.6457C3.94661 3.92126 4.12884 3.24792 4.49328 2.6257C4.84884 2.03015 5.32884 1.55459 5.93328 1.19904C6.5555 0.834592 7.22884 0.652369 7.95328 0.652369C8.67773 0.652369 9.35106 0.834592 9.97328 1.19904C10.5688 1.55459 11.0444 2.03015 11.3999 2.6257C11.7644 3.24792 11.9466 3.92126 11.9466 4.6457C11.9466 5.37015 11.7644 6.04348 11.3999 6.6657C11.0444 7.27015 10.5688 7.75015 9.97328 8.1057C9.35106 8.47015 8.6755 8.65237 7.94661 8.65237ZM7.94661 7.31904C8.42661 7.31904 8.87106 7.19904 9.27995 6.95904C9.68884 6.71904 10.0133 6.39459 10.2533 5.9857C10.4933 5.57681 10.6133 5.13237 10.6133 4.65237C10.6133 4.17237 10.4933 3.72793 10.2533 3.31904C10.0133 2.91015 9.68884 2.5857 9.27995 2.3457C8.87106 2.1057 8.42661 1.9857 7.94661 1.9857C7.46661 1.9857 7.02217 2.1057 6.61328 2.3457C6.20439 2.5857 5.87995 2.91015 5.63995 3.31904C5.39995 3.72793 5.27995 4.17237 5.27995 4.65237C5.27995 5.13237 5.39995 5.57681 5.63995 5.9857C5.87995 6.39459 6.20439 6.71904 6.61328 6.95904C7.02217 7.19904 7.46661 7.31904 7.94661 7.31904ZM11.9466 14.319L9.98661 15.3457L10.3599 13.159L8.77328 11.6257L10.9733 11.3057L11.9466 9.31904L12.9333 11.3057L15.1199 11.6257L13.5333 13.159L13.9066 15.3457L11.9466 14.319Z" fill="white"/>
</svg>
