<svg width="18" height="16" viewBox="0 0 18 16" fill="none" xmlns="http://www.w3.org/2000/svg">
<path d="M2.8654 2H14.8654C15.0521 2 15.2098 2.06444 15.3387 2.19333C15.4676 2.32222 15.5321 2.48 15.5321 2.66667V13.3333C15.5321 13.52 15.4676 13.6778 15.3387 13.8067C15.2098 13.9356 15.0521 14 14.8654 14H2.8654C2.67873 14 2.52095 13.9356 2.39206 13.8067C2.26317 13.6778 2.19873 13.52 2.19873 13.3333V2.66667C2.19873 2.48 2.26317 2.32222 2.39206 2.19333C2.52095 2.06444 2.67873 2 2.8654 2ZM14.1987 4.82667L8.91873 9.56L3.53206 4.81333V12.6667H14.1987V4.82667ZM3.87873 3.33333L8.9054 7.77333L13.8654 3.33333H3.87873Z" fill="white"/>
</svg>
