<svg width="18" height="16" viewBox="0 0 18 16" fill="none" xmlns="http://www.w3.org/2000/svg">
<path d="M12.7851 10.9734L15.6385 13.8268L14.6918 14.7734L11.8385 11.9201C11.314 12.3379 10.7407 12.6579 10.1185 12.8801C9.46069 13.1112 8.78513 13.2268 8.0918 13.2268C7.00735 13.2268 5.99846 12.9557 5.06513 12.4134C4.15846 11.8801 3.44291 11.1601 2.91846 10.2534C2.36735 9.3201 2.0918 8.31121 2.0918 7.22677C2.0918 6.14233 2.36735 5.13344 2.91846 4.2001C3.44291 3.29344 4.15846 2.57788 5.06513 2.05344C5.99846 1.50233 7.00735 1.22677 8.0918 1.22677C9.17624 1.22677 10.1851 1.50233 11.1185 2.05344C12.0251 2.57788 12.7451 3.29344 13.2785 4.2001C13.8207 5.13344 14.0918 6.14233 14.0918 7.22677C14.0918 7.9201 13.9762 8.59566 13.7451 9.25344C13.5229 9.87566 13.2029 10.449 12.7851 10.9734ZM11.4385 10.4801C11.8562 10.0534 12.1807 9.56455 12.4118 9.01344C12.6429 8.44455 12.7585 7.84899 12.7585 7.22677C12.7585 6.38233 12.5451 5.59566 12.1185 4.86677C11.7096 4.16455 11.154 3.60899 10.4518 3.2001C9.72291 2.77344 8.93624 2.5601 8.0918 2.5601C7.24735 2.5601 6.46069 2.77344 5.7318 3.2001C5.02957 3.60899 4.47402 4.16455 4.06513 4.86677C3.63846 5.59566 3.42513 6.38233 3.42513 7.22677C3.42513 8.07122 3.63846 8.85788 4.06513 9.58677C4.47402 10.289 5.02957 10.8445 5.7318 11.2534C6.46069 11.6801 7.24735 11.8934 8.0918 11.8934C8.71402 11.8934 9.30957 11.7779 9.87846 11.5468C10.4296 11.3157 10.9185 10.9912 11.3451 10.5734L11.4385 10.4801Z" fill="white"/>
</svg>
