<svg width="18" height="16" viewBox="0 0 18 16" fill="none" xmlns="http://www.w3.org/2000/svg">
<path d="M8.8654 6.00033C8.50095 6.00033 8.1654 6.08921 7.85873 6.26699C7.55206 6.44477 7.30984 6.68699 7.13206 6.99366C6.95429 7.30033 6.8654 7.63588 6.8654 8.00033C6.8654 8.36477 6.95429 8.70033 7.13206 9.00699C7.30984 9.31366 7.55206 9.55588 7.85873 9.73366C8.1654 9.91144 8.50095 10.0003 8.8654 10.0003C9.22984 10.0003 9.5654 9.91144 9.87206 9.73366C10.1787 9.55588 10.421 9.31366 10.5987 9.00699C10.7765 8.70033 10.8654 8.36477 10.8654 8.00033C10.8654 7.63588 10.7765 7.30033 10.5987 6.99366C10.421 6.68699 10.1787 6.44477 9.87206 6.26699C9.5654 6.08921 9.22984 6.00033 8.8654 6.00033ZM8.8654 4.66699C9.46984 4.66699 10.0276 4.81588 10.5387 5.11366C11.0498 5.41144 11.4543 5.81588 11.7521 6.32699C12.0498 6.8381 12.1987 7.39588 12.1987 8.00033C12.1987 8.60477 12.0498 9.16255 11.7521 9.67366C11.4543 10.1848 11.0498 10.5892 10.5387 10.887C10.0276 11.1848 9.46984 11.3337 8.8654 11.3337C8.26095 11.3337 7.70318 11.1848 7.19206 10.887C6.68095 10.5892 6.27651 10.1848 5.97873 9.67366C5.68095 9.16255 5.53206 8.60477 5.53206 8.00033C5.53206 7.39588 5.68095 6.8381 5.97873 6.32699C6.27651 5.81588 6.68095 5.41144 7.19206 5.11366C7.70318 4.81588 8.26095 4.66699 8.8654 4.66699ZM13.1987 4.49366C13.1987 4.72477 13.1165 4.92255 12.9521 5.08699C12.7876 5.25144 12.5921 5.33366 12.3654 5.33366C12.1387 5.33366 11.9432 5.25144 11.7787 5.08699C11.6143 4.92255 11.5321 4.72699 11.5321 4.50033C11.5321 4.27366 11.6143 4.0781 11.7787 3.91366C11.9432 3.74921 12.1387 3.66699 12.3654 3.66699C12.5921 3.66699 12.7876 3.74921 12.9521 3.91366C13.1165 4.0781 13.1987 4.27144 13.1987 4.49366ZM8.8654 2.66699C8.04762 2.66699 7.49206 2.66921 7.19873 2.67366C6.9054 2.6781 6.56762 2.68921 6.1854 2.70699C5.7054 2.72477 5.3054 2.79588 4.9854 2.92033C4.70984 3.02699 4.46762 3.18477 4.25873 3.39366C4.04984 3.60255 3.89206 3.84477 3.7854 4.12033C3.66095 4.44033 3.58984 4.84033 3.57206 5.32032C3.55429 5.68477 3.54317 6.01144 3.53873 6.30033C3.53429 6.58921 3.53206 7.15588 3.53206 8.00033C3.53206 8.8181 3.53429 9.37366 3.53873 9.66699C3.54317 9.96033 3.55429 10.2981 3.57206 10.6803C3.58984 11.1603 3.66095 11.5603 3.7854 11.8803C3.89206 12.1559 4.04984 12.3981 4.25873 12.607C4.46762 12.8159 4.70984 12.9692 4.9854 13.067C5.3054 13.2003 5.7054 13.2759 6.1854 13.2937C6.54984 13.3114 6.87651 13.3225 7.1654 13.327C7.45429 13.3314 8.02095 13.3337 8.8654 13.3337C9.68318 13.3337 10.2387 13.3314 10.5321 13.327C10.8254 13.3225 11.1632 13.3114 11.5454 13.2937C12.0254 13.2759 12.4254 13.2048 12.7454 13.0803C13.021 12.9737 13.2632 12.8159 13.4721 12.607C13.681 12.3981 13.8343 12.1559 13.9321 11.8803C14.0654 11.5603 14.141 11.1603 14.1587 10.6803C14.1765 10.3159 14.1876 9.98921 14.1921 9.70033C14.1965 9.41144 14.1987 8.84477 14.1987 8.00033C14.1987 7.18255 14.1965 6.62699 14.1921 6.33366C14.1876 6.04033 14.1765 5.70255 14.1587 5.32032C14.141 4.84033 14.0698 4.44033 13.9454 4.12033C13.8387 3.84477 13.681 3.60255 13.4721 3.39366C13.2632 3.18477 13.021 3.02699 12.7454 2.92033C12.4254 2.79588 12.0254 2.72477 11.5454 2.70699C11.181 2.68921 10.8543 2.6781 10.5654 2.67366C10.2765 2.66921 9.70984 2.66699 8.8654 2.66699ZM8.8654 1.33366C9.73651 1.33366 10.3321 1.3381 10.6521 1.34699C10.9187 1.34699 11.2387 1.35588 11.6121 1.37366C12.2343 1.40032 12.7721 1.50255 13.2254 1.68033C13.6787 1.8581 14.0743 2.11588 14.4121 2.45366C14.7498 2.79144 15.0076 3.18699 15.1854 3.64033C15.3632 4.09366 15.4654 4.63144 15.4921 5.25366C15.5098 5.63588 15.5187 5.95588 15.5187 6.21366C15.5276 6.55144 15.5321 7.15144 15.5321 8.01366C15.5321 8.87588 15.5276 9.46699 15.5187 9.78699C15.5187 10.0537 15.5098 10.3737 15.4921 10.747C15.4654 11.3692 15.3632 11.907 15.1854 12.3603C15.0076 12.8137 14.7498 13.2092 14.4121 13.547C14.0743 13.8848 13.6787 14.1425 13.2254 14.3203C12.7721 14.4981 12.2343 14.6003 11.6121 14.627C11.2298 14.6448 10.9098 14.6537 10.6521 14.6537C10.3143 14.6625 9.71429 14.667 8.85206 14.667C7.98984 14.667 7.39873 14.6625 7.07873 14.6537C6.81206 14.6537 6.49206 14.6448 6.11873 14.627C5.49651 14.6003 4.95873 14.4981 4.5054 14.3203C4.05206 14.1425 3.65651 13.8848 3.31873 13.547C2.98095 13.2092 2.72317 12.8137 2.5454 12.3603C2.36762 11.907 2.2654 11.3692 2.23873 10.747C2.22095 10.3648 2.21206 10.0448 2.21206 9.78699C2.20317 9.44921 2.19873 8.84921 2.19873 7.98699C2.19873 7.12477 2.20317 6.53366 2.21206 6.21366C2.21206 5.94699 2.22095 5.62699 2.23873 5.25366C2.2654 4.63144 2.36762 4.09366 2.5454 3.64033C2.72317 3.18699 2.98095 2.79144 3.31873 2.45366C3.65651 2.11588 4.05206 1.8581 4.5054 1.68033C4.95873 1.50255 5.49651 1.40032 6.11873 1.37366C6.50095 1.35588 6.82095 1.34699 7.07873 1.34699C7.41651 1.3381 8.01206 1.33366 8.8654 1.33366Z" fill="white"/>
</svg>
