<svg width="17" height="24" viewBox="0 0 17 24" fill="none" xmlns="http://www.w3.org/2000/svg">
<path d="M15.3428 10.9997V17.6677C15.3428 17.8544 15.2784 18.0122 15.1495 18.1411C15.0205 18.27 14.8627 18.3345 14.676 18.3345H14.0092C13.8225 18.3345 13.6647 18.27 13.5358 18.1411C13.4069 18.0122 13.3424 17.8544 13.3424 17.6677V17.0009H4.00724V17.6677C4.00724 17.8544 3.94278 18.0122 3.81386 18.1411C3.68495 18.27 3.52714 18.3345 3.34044 18.3345H2.67364C2.48693 18.3345 2.32912 18.27 2.20021 18.1411C2.07129 18.0122 2.00684 17.8544 2.00684 17.6677V10.9997L3.63383 7.73235C3.74941 7.51009 3.91388 7.33227 4.12726 7.19891C4.34064 7.06555 4.57624 6.99887 4.83407 6.99887H6.67444V5.66527H10.6752V6.99887H12.5156C12.7734 6.99887 13.009 7.06555 13.2224 7.19891C13.4358 7.33227 13.6003 7.51009 13.7158 7.73235L15.3428 10.9997ZM14.0092 12.3333H3.34044V15.6673H14.0092V12.3333ZM3.50047 10.9997H13.8492L12.5156 8.33247H4.83407L3.50047 10.9997ZM5.00744 15.0005C4.73183 15.0005 4.49622 14.9027 4.30063 14.7071C4.10503 14.5115 4.00724 14.2759 4.00724 14.0003C4.00724 13.7247 4.10503 13.4891 4.30063 13.2935C4.49622 13.0979 4.73183 13.0001 5.00744 13.0001C5.28305 13.0001 5.51865 13.0979 5.71424 13.2935C5.90984 13.4891 6.00764 13.7247 6.00764 14.0003C6.00764 14.2759 5.90984 14.5115 5.71424 14.7071C5.51865 14.9027 5.28305 15.0005 5.00744 15.0005ZM12.3422 15.0005C12.0666 15.0005 11.831 14.9027 11.6354 14.7071C11.4398 14.5115 11.342 14.2759 11.342 14.0003C11.342 13.7247 11.4398 13.4891 11.6354 13.2935C11.831 13.0979 12.0666 13.0001 12.3422 13.0001C12.6178 13.0001 12.8534 13.0979 13.049 13.2935C13.2446 13.4891 13.3424 13.7247 13.3424 14.0003C13.3424 14.2759 13.2446 14.5115 13.049 14.7071C12.8534 14.9027 12.6178 15.0005 12.3422 15.0005Z" fill="white"/>
</svg>
