<svg width="18" height="24" viewBox="0 0 18 24" fill="none" xmlns="http://www.w3.org/2000/svg">
<path d="M12.3323 17.0009L13.5326 18.0011V18.3345H4.19737V18.0011L5.39761 17.0009H4.19737C3.95732 17.0009 3.73505 16.9409 3.53057 16.8208C3.32608 16.7008 3.16383 16.5386 3.04381 16.3341C2.92378 16.1296 2.86377 15.9073 2.86377 15.6673V8.33247C2.86377 7.85238 2.98379 7.40784 3.22384 6.99887C3.46389 6.5899 3.7884 6.26539 4.19737 6.02534C4.60634 5.7853 5.05087 5.66527 5.53097 5.66527H12.199C12.6791 5.66527 13.1236 5.7853 13.5326 6.02534C13.9415 6.26539 14.266 6.5899 14.5061 6.99887C14.7461 7.40784 14.8662 7.85238 14.8662 8.33247V15.6673C14.8662 15.9073 14.8062 16.1296 14.6861 16.3341C14.5661 16.5386 14.4039 16.7008 14.1994 16.8208C13.9949 16.9409 13.7726 17.0009 13.5326 17.0009H12.3323ZM5.53097 6.99887C5.29092 6.99887 5.06865 7.05888 4.86417 7.17891C4.65968 7.29893 4.49743 7.46119 4.37741 7.66567C4.25738 7.87016 4.19737 8.09242 4.19737 8.33247V15.6673H13.5326V8.33247C13.5326 8.09242 13.4726 7.87016 13.3525 7.66567C13.2325 7.46119 13.0703 7.29893 12.8658 7.17891C12.6613 7.05888 12.439 6.99887 12.199 6.99887H5.53097ZM8.86497 15.0005C8.62492 15.0005 8.40265 14.9405 8.19817 14.8204C7.99368 14.7004 7.83143 14.5382 7.71141 14.3337C7.59138 14.1292 7.53137 13.9069 7.53137 13.6669C7.53137 13.4268 7.59138 13.2046 7.71141 13.0001C7.83143 12.7956 7.99368 12.6333 8.19817 12.5133C8.40265 12.3933 8.62492 12.3333 8.86497 12.3333C9.10502 12.3333 9.32728 12.3933 9.53177 12.5133C9.73625 12.6333 9.89851 12.7956 10.0185 13.0001C10.1386 13.2046 10.1986 13.4268 10.1986 13.6669C10.1986 13.9069 10.1386 14.1292 10.0185 14.3337C9.89851 14.5382 9.73625 14.7004 9.53177 14.8204C9.32728 14.9405 9.10502 15.0005 8.86497 15.0005ZM4.86417 8.33247H12.8658V10.9997H4.86417V8.33247Z" fill="white"/>
</svg>
