<svg width="18" height="24" viewBox="0 0 18 24" fill="none" xmlns="http://www.w3.org/2000/svg">
<path d="M9.26535 14.667L7.13159 9.33258H5.79799L3.66423 14.667H5.10451L5.37123 14.0002H7.55834L7.82506 14.667H9.26535ZM5.90467 12.6666L6.46479 11.253L7.0249 12.6666H5.90467ZM12.1993 9.33258H13.5329V14.667H11.5325C11.1679 14.667 10.8323 14.5781 10.5256 14.4003C10.2189 14.2224 9.9766 13.9802 9.79879 13.6734C9.62097 13.3667 9.53207 13.0311 9.53207 12.6666C9.53207 12.3021 9.62097 11.9664 9.79879 11.6597C9.9766 11.353 10.2189 11.1107 10.5256 10.9329C10.8323 10.7551 11.1679 10.6662 11.5325 10.6662H12.1993V9.33258ZM11.5325 11.9998C11.3458 11.9998 11.188 12.0642 11.059 12.1931C10.9301 12.3221 10.8657 12.4799 10.8657 12.6666C10.8657 12.8533 10.9301 13.0111 11.059 13.14C11.188 13.2689 11.3458 13.3334 11.5325 13.3334H12.1993V11.9998H11.5325ZM14.8665 5.99858H2.86407C2.67736 5.99858 2.51955 6.06303 2.39064 6.19195C2.26172 6.32086 2.19727 6.47867 2.19727 6.66538V17.3342C2.19727 17.5209 2.26172 17.6787 2.39064 17.8076C2.51955 17.9365 2.67736 18.001 2.86407 18.001H14.8665C15.0532 18.001 15.211 17.9365 15.3399 17.8076C15.4688 17.6787 15.5333 17.5209 15.5333 17.3342V6.66538C15.5333 6.47867 15.4688 6.32086 15.3399 6.19195C15.211 6.06303 15.0532 5.99858 14.8665 5.99858ZM3.53087 16.6674V7.33218H14.1997V16.6674H3.53087Z" fill="white"/>
</svg>
