<svg width="18" height="24" viewBox="0 0 18 24" fill="none" xmlns="http://www.w3.org/2000/svg">
<path d="M14.8665 18.001H2.86407C2.67736 18.001 2.51955 17.9365 2.39064 17.8076C2.26172 17.6787 2.19727 17.5209 2.19727 17.3342V12.3198C2.19727 12.1242 2.27284 11.9598 2.42398 11.8264L4.86447 9.69265V6.66538C4.86447 6.47867 4.92892 6.32086 5.05784 6.19195C5.18675 6.06303 5.34456 5.99858 5.53127 5.99858H14.8665C15.0532 5.99858 15.211 6.06303 15.3399 6.19195C15.4688 6.32086 15.5333 6.47867 15.5333 6.66538V17.3342C15.5333 17.5209 15.4688 17.6787 15.3399 17.8076C15.211 17.9365 15.0532 18.001 14.8665 18.001ZM6.86487 16.6674H8.86527V12.6266L6.19807 10.3061L3.53087 12.6266V16.6674H5.53127V14.0002H6.86487V16.6674ZM10.1989 16.6674H14.1997V7.33218H6.19807V8.74579C6.36699 8.74579 6.51368 8.80358 6.63815 8.91916L9.97215 11.8264C10.1233 11.9598 10.1989 12.1242 10.1989 12.3198V16.6674ZM11.5325 11.333H12.8661V12.6666H11.5325V11.333ZM11.5325 14.0002H12.8661V15.3338H11.5325V14.0002ZM11.5325 8.66578H12.8661V9.99938H11.5325V8.66578ZM8.86527 8.66578H10.1989V9.99938H8.86527V8.66578Z" fill="white"/>
</svg>
