<svg width="17" height="24" viewBox="0 0 17 24" fill="none" xmlns="http://www.w3.org/2000/svg">
<path d="M12.0091 17.0011H5.34108V17.6679C5.34108 17.8546 5.27662 18.0124 5.14771 18.1413C5.01879 18.2703 4.86098 18.3347 4.67428 18.3347H4.00748C3.82078 18.3347 3.66297 18.2703 3.53405 18.1413C3.40514 18.0124 3.34068 17.8546 3.34068 17.6679V17.0011H2.67388V11.6667H2.00708V8.99952H2.67388V6.99912C2.67388 6.75907 2.73389 6.5368 2.85392 6.33232C2.97394 6.12783 3.13619 5.96558 3.34068 5.84555C3.54517 5.72553 3.76743 5.66552 4.00748 5.66552H13.3427C13.5827 5.66552 13.805 5.72553 14.0095 5.84555C14.214 5.96558 14.3762 6.12783 14.4962 6.33232C14.6163 6.5368 14.6763 6.75907 14.6763 6.99912V8.99952H15.3431V11.6667H14.6763V17.0011H14.0095V17.6679C14.0095 17.8546 13.945 18.0124 13.8161 18.1413C13.6872 18.2703 13.5294 18.3347 13.3427 18.3347H12.6759C12.4892 18.3347 12.3314 18.2703 12.2025 18.1413C12.0735 18.0124 12.0091 17.8546 12.0091 17.6679V17.0011ZM13.3427 11.6667V6.99912H4.00748V11.6667H13.3427ZM13.3427 13.0003H4.00748V15.6675H13.3427V13.0003ZM4.67428 13.6671H7.34148V15.0007H4.67428V13.6671ZM10.0087 13.6671H12.6759V15.0007H10.0087V13.6671Z" fill="white"/>
</svg>
