<svg width="18" height="24" viewBox="0 0 18 24" fill="none" xmlns="http://www.w3.org/2000/svg">
<path d="M13.1995 9.33277H14.5331C14.7198 9.33277 14.8776 9.39723 15.0065 9.52614C15.1354 9.65506 15.1999 9.81286 15.1999 9.99957V18.0012C15.1999 18.1879 15.1354 18.3457 15.0065 18.4746C14.8776 18.6035 14.7198 18.668 14.5331 18.668H9.19867C9.01197 18.668 8.85416 18.6035 8.72524 18.4746C8.59633 18.3457 8.53187 18.1879 8.53187 18.0012V17.3344H3.19747C3.01077 17.3344 2.85296 17.2699 2.72404 17.141C2.59513 17.0121 2.53067 16.8543 2.53067 16.6676V5.99877C2.53067 5.81207 2.59513 5.65425 2.72404 5.52534C2.85296 5.39643 3.01077 5.33197 3.19747 5.33197H12.5327C12.7194 5.33197 12.8772 5.39643 13.0061 5.52534C13.135 5.65425 13.1995 5.81207 13.1995 5.99877V9.33277ZM11.8659 9.33277V6.66557H3.86427V16.0008H8.53187V9.99957C8.53187 9.81286 8.59633 9.65506 8.72524 9.52614C8.85416 9.39723 9.01197 9.33277 9.19867 9.33277H11.8659ZM9.86547 10.6664V17.3344H13.8663V10.6664H9.86547Z" fill="white"/>
</svg>
